version 1
nodes
0 "Bone_35" -1
1 "Bone_34" 0
2 "Bone_33" 1
3 "Bone_32" 2
4 "Bone_31" 3
5 "Bone_30" 4
6 "Bone_29" 5
7 "Bone_28" 1
8 "Bone_27" 7
9 "Bone_26" 8
10 "Bone_25" 9
11 "Bone_24" 10
12 "Bone_23" 7
13 "Bone_22" 12
14 "Bone_21" 13
15 "Bone_20" 14
16 "Bone_19" 7
17 "Bone_18" 7
18 "Bone_17" 7
19 "Bone_16" 18
20 "Bone_15" 18
21 "Bone_14" 18
22 "Bone_13" 18
23 "Bone_12" 18
24 "Bone_11" 18
25 "Bone_10" 18
26 "Bone_9" 1
27 "Bone_8" 26
28 "Bone_7" 27
29 "Bone_6" 28
30 "Bone_5" 28
31 "Bone_4" 1
32 "Bone_3" 31
33 "Bone_2" 32
34 "Bone_1" 33
35 "Bone_0" 33
end
skeleton
time 0
0 0.000000 0.000000 0.000000 1.570796 -0.000000 0.000000
1 0.000000 7.560000 -0.720000 -1.588250 0.471239 -1.588250
2 6.750000 3.420001 -0.000000 -0.000000 0.000000 2.042035
3 0.990000 0.000000 -0.000000 0.000000 0.000000 -0.052360
4 3.240000 0.000000 -0.000000 0.000000 0.000000 0.558505
5 3.780000 0.000000 -0.000000 -0.000000 0.000000 -0.628319
6 10.890001 0.629999 -0.000000 2.740167 -1.553343 2.740167
7 -0.000000 0.000000 -0.000000 0.000000 0.000000 2.949606
8 1.620000 1.890000 -4.500000 -0.436332 0.244346 1.745330
9 2.340000 -0.000000 -0.000000 -0.034906 -0.034906 0.017453
10 1.800000 -0.000001 0.000000 -0.000000 0.000000 0.000000
11 1.800000 -0.450000 0.180001 -1.518437 -1.029745 -2.146755
12 1.620000 1.890000 4.500000 0.436332 -0.244346 1.745330
13 2.340000 -0.000000 0.000001 -0.000000 -0.000000 0.034907
14 1.800000 0.000000 0.000001 -0.000000 0.000000 0.000000
15 1.800000 -0.450000 -0.180000 1.518437 1.029745 -2.146755
16 4.410000 8.099999 0.000000 1.553343 -1.553343 3.001966
17 2.160000 5.580000 0.000000 2.216568 -1.553343 2.216568
18 3.600000 -0.000000 0.000000 -0.034906 0.034906 1.413717
19 -0.090000 -4.410000 -2.970000 -2.478368 -0.296706 -1.169371
20 -0.090000 -4.410000 2.970000 2.478368 0.296706 -1.169371
21 3.600000 -2.700001 -1.620000 -0.000000 0.000000 0.000000
22 3.600000 -2.700001 1.620000 -0.000000 0.000000 0.000000
23 6.120000 -0.630000 0.000000 -3.106685 -1.570796 0.000000
24 0.360000 -6.570001 0.000000 -1.623157 -1.553343 -1.623157
25 -0.810000 2.610000 0.000000 -1.623157 -1.553343 -1.623157
26 2.970000 -1.710000 -2.880000 0.139626 0.261799 -1.500983
27 3.240000 0.000000 0.000000 -0.034906 -0.034906 2.146755
28 3.510000 -0.000000 -0.090000 -0.000000 0.052360 -2.548181
29 -0.630000 0.810000 0.090000 0.000000 -1.221730 3.001966
30 2.160000 0.360000 0.270000 0.000000 -1.221730 3.001966
31 2.970000 -1.710000 2.880000 -0.139626 -0.261799 -1.500983
32 3.240000 0.000000 0.000000 -0.000000 0.000000 2.164208
33 3.510000 0.000000 0.090000 0.017453 -0.034907 -2.530727
34 -0.630000 0.810000 -0.090000 0.034906 1.204278 2.984513
35 2.160000 0.360000 -0.270000 0.034906 1.204278 2.984513
end
triangles
Texture_0.png
1 -5.030025 4.602565 5.585376 -0.844935 0.528031 0.085253 0.650869 0.199673
1 -5.887987 1.931904 5.653722 -0.999493 0.026375 0.017858 0.345502 -0.021254
1 -5.494005 1.274516 8.140532 -0.991352 0.052649 0.120205 0.354240 -0.779964
Texture_0.png
1 -5.030025 4.602565 5.585376 -0.844935 0.528031 0.085253 0.650869 0.199673
1 -2.983660 6.362439 5.941370 -0.493715 0.855161 0.157940 0.869317 0.256358
1 -3.361527 6.053066 3.567765 -0.488214 0.796704 -0.356243 0.750206 0.892977
Texture_0.png
1 -5.887987 1.931904 5.653722 -0.999493 0.026375 0.017858 0.345502 -0.021254
1 -5.030025 4.602565 5.585376 -0.844935 0.528031 0.085253 0.650869 0.199673
1 -5.217810 3.890480 3.609378 -0.829406 0.413278 -0.375880 0.500485 0.696759
Texture_0.png
1 4.868328 4.756513 5.491052 0.829578 0.554075 0.069296 0.650869 0.199673
1 4.099325 4.433264 9.279711 0.697723 0.649848 0.301463 0.746526 -0.883160
1 5.484168 1.445258 8.035916 0.991346 0.083486 0.101311 0.354240 -0.779964
Texture_0.png
1 3.117396 6.153832 3.506025 0.456329 0.811395 -0.365244 0.750206 0.892977
1 2.775382 6.452008 5.886490 0.469804 0.870146 0.148759 0.869317 0.256358
1 4.868328 4.756513 5.491052 0.829578 0.554075 0.069296 0.650869 0.199673
Texture_0.png
1 5.040483 4.050025 3.511622 0.808842 0.438758 -0.391492 0.500485 0.696759
1 4.868328 4.756513 5.491052 0.829578 0.554075 0.069296 0.650869 0.199673
1 5.810067 2.113842 5.542247 0.998348 0.057447 -0.001180 0.345502 -0.021254
Texture_0.png
1 -0.121653 7.414843 5.720548 -0.016172 0.997476 -0.069135 0.985669 0.390077
1 -0.062193 6.175209 9.936980 -0.010726 0.923946 0.382373 0.987509 -0.884613
1 2.775382 6.452008 5.886490 0.469804 0.870146 0.148759 0.869317 0.256358
Texture_0.png
1 4.868328 4.756513 5.491052 0.829578 0.554075 0.069296 0.650869 0.199673
1 2.775382 6.452008 5.886490 0.469804 0.870146 0.148759 0.869317 0.256358
1 4.099325 4.433264 9.279711 0.697723 0.649848 0.301463 0.746526 -0.883160
Texture_0.png
1 -2.983660 6.362439 5.941370 -0.493715 0.855161 0.157940 0.869317 0.256358
1 -0.062193 6.175209 9.936980 -0.010726 0.923946 0.382373 0.987509 -0.884613
1 -0.121653 7.414843 5.720548 -0.016172 0.997476 -0.069135 0.985669 0.390077
Texture_0.png
1 -2.983660 6.362439 5.941370 -0.493715 0.855161 0.157940 0.869317 0.256358
1 -5.030025 4.602565 5.585376 -0.844935 0.528031 0.085253 0.650869 0.199673
1 -4.179298 4.304509 9.358604 -0.711722 0.627927 0.314894 0.746526 -0.883160
Texture_0.png
1 -0.062193 6.175209 9.936980 -0.010726 0.923946 0.382373 0.987509 -0.884613
1 4.099325 4.433264 9.279711 0.697723 0.649848 0.301463 0.746526 -0.883160
1 2.775382 6.452008 5.886490 0.469804 0.870146 0.148759 0.869317 0.256358
Texture_0.png
1 -2.983660 6.362439 5.941370 -0.493715 0.855161 0.157940 0.869317 0.256358
1 -4.179298 4.304509 9.358604 -0.711722 0.627927 0.314894 0.746526 -0.883160
1 -0.062193 6.175209 9.936980 -0.010726 0.923946 0.382373 0.987509 -0.884613
Texture_0.png
1 5.484168 1.445258 8.035916 0.991346 0.083486 0.101311 0.354240 -0.779964
1 5.810067 2.113842 5.542247 0.998348 0.057447 -0.001180 0.345502 -0.021254
1 4.868328 4.756513 5.491052 0.829578 0.554075 0.069296 0.650869 0.199673
Texture_0.png
1 -5.494005 1.274516 8.140532 -0.991352 0.052649 0.120205 0.354240 -0.779964
1 -4.179298 4.304509 9.358604 -0.711722 0.627927 0.314894 0.746526 -0.883160
1 -5.030025 4.602565 5.585376 -0.844935 0.528031 0.085253 0.650869 0.199673
Texture_0.png
1 -0.121653 7.414843 5.720548 -0.016172 0.997476 -0.069135 0.985669 0.390077
1 2.775382 6.452008 5.886490 0.469804 0.870146 0.148759 0.869317 0.256358
1 3.117396 6.153832 3.506025 0.456329 0.811395 -0.365244 0.750206 0.892977
Texture_0.png
1 -3.361527 6.053066 3.567765 -0.488214 0.796704 -0.356243 0.750206 0.892977
1 -2.983660 6.362439 5.941370 -0.493715 0.855161 0.157940 0.869317 0.256358
1 -0.121653 7.414843 5.720548 -0.016172 0.997476 -0.069135 0.985669 0.390077
Texture_0.png
1 -0.130916 6.030970 2.489866 -0.018054 0.770014 -0.637771 0.706516 1.179309
1 -0.121653 7.414843 5.720548 -0.016172 0.997476 -0.069135 0.985669 0.390077
1 3.117396 6.153832 3.506025 0.456329 0.811395 -0.365244 0.750206 0.892977
Texture_0.png
1 -3.361527 6.053066 3.567765 -0.488214 0.796704 -0.356243 0.750206 0.892977
1 -0.121653 7.414843 5.720548 -0.016172 0.997476 -0.069135 0.985669 0.390077
1 -0.130916 6.030970 2.489866 -0.018054 0.770014 -0.637771 0.706516 1.179309
Texture_0.png
1 3.117396 6.153832 3.506025 0.456329 0.811395 -0.365244 0.750206 0.892977
1 4.868328 4.756513 5.491052 0.829578 0.554075 0.069296 0.650869 0.199673
1 5.040483 4.050025 3.511622 0.808842 0.438758 -0.391492 0.500485 0.696759
Texture_0.png
1 -5.217810 3.890480 3.609378 -0.829406 0.413278 -0.375880 0.500485 0.696759
1 -5.030025 4.602565 5.585376 -0.844935 0.528031 0.085253 0.650869 0.199673
1 -3.361527 6.053066 3.567765 -0.488214 0.796704 -0.356243 0.750206 0.892977
Texture_1.png
1 5.227658 -0.716057 5.928733 0.913999 -0.405695 -0.004193 0.121094 0.367188
1 5.810067 2.113842 5.542247 0.998348 0.057447 -0.001180 0.366211 0.497070
1 5.484168 1.445258 8.035916 0.991346 0.083486 0.101311 0.121094 0.367188
Texture_1.png
1 -5.494005 1.274516 8.140532 -0.991352 0.052649 0.120205 0.022461 0.373047
1 -5.887987 1.931904 5.653722 -0.999493 0.026375 0.017858 0.165039 0.532227
1 -5.210605 -0.878402 6.028204 -0.900856 -0.433921 0.013102 0.366211 0.497070
Texture_1.png
1 -2.626398 3.468474 0.924495 -0.232037 0.272159 -0.933857 0.891602 0.333008
1 -0.130916 6.030970 2.489866 -0.018054 0.770014 -0.637771 0.891602 0.333008
1 2.412764 3.546848 0.876475 0.234066 0.312482 -0.920635 0.927734 0.470703
Texture_1.png
1 -3.917639 -3.150821 5.756826 -0.648414 -0.714565 -0.262593 0.223633 0.000000
1 -3.764576 -2.252201 4.393648 -0.514907 -0.845571 -0.141000 0.067383 0.032227
1 -1.093153 -1.830164 2.036471 -0.128266 -0.730648 -0.670597 0.067383 0.032227
Texture_1.png
1 0.040480 -3.605012 4.749106 0.011539 -0.943986 -0.329783 0.186523 0.046875
1 -1.093153 -1.830164 2.036471 -0.128266 -0.730648 -0.670597 0.067383 0.032227
1 1.066487 -1.796575 2.015890 0.121629 -0.693639 -0.709979 0.223633 0.000000
Texture_1.png
1 1.104334 0.829870 0.828056 0.216530 -0.206775 -0.954127 1.000000 0.525391
1 -1.235276 0.793482 0.850351 -0.225194 -0.304050 -0.925657 0.927734 0.470703
1 -2.626398 3.468474 0.924495 -0.232037 0.272159 -0.933857 0.704102 0.127930
Texture_1.png
1 1.066487 -1.796575 2.015890 0.121629 -0.693639 -0.709979 0.671875 0.189453
1 -1.093153 -1.830164 2.036471 -0.128266 -0.730648 -0.670597 0.704102 0.127930
1 -1.235276 0.793482 0.850351 -0.225194 -0.304050 -0.925657 0.671875 0.189453
Texture_1.png
1 1.066487 -1.796575 2.015890 0.121629 -0.693639 -0.709979 0.223633 0.000000
1 3.794167 -2.134642 4.321618 0.538171 -0.829193 -0.151035 0.223633 0.000000
1 4.001043 -3.027664 5.681365 0.665200 -0.694135 -0.275111 0.671875 0.189453
Texture_1.png
1 5.040483 4.050025 3.511622 0.808842 0.438758 -0.391492 0.652344 0.563477
1 2.412764 3.546848 0.876475 0.234066 0.312482 -0.920635 0.843750 0.715820
1 3.117396 6.153832 3.506025 0.456329 0.811395 -0.365244 0.843750 0.715820
Texture_1.png
1 -3.361527 6.053066 3.567765 -0.488214 0.796704 -0.356243 0.703125 -0.298828
1 -2.626398 3.468474 0.924495 -0.232037 0.272159 -0.933857 0.657227 0.778320
1 -5.217810 3.890480 3.609378 -0.829406 0.413278 -0.375880 1.000000 0.525391
Texture_1.png
1 3.117396 6.153832 3.506025 0.456329 0.811395 -0.365244 0.630859 1.017578
1 2.412764 3.546848 0.876475 0.234066 0.312482 -0.920635 0.715820 0.848633
1 -0.130916 6.030970 2.489866 -0.018054 0.770014 -0.637771 0.927734 0.470703
Texture_1.png
1 -0.130916 6.030970 2.489866 -0.018054 0.770014 -0.637771 0.927734 0.470703
1 -2.626398 3.468474 0.924495 -0.232037 0.272159 -0.933857 0.956055 0.688477
1 -3.361527 6.053066 3.567765 -0.488214 0.796704 -0.356243 0.956055 0.688477
Texture_1.png
1 4.001043 -3.027664 5.681365 0.665200 -0.694135 -0.275111 0.002930 0.541992
1 3.794167 -2.134642 4.321618 0.538171 -0.829193 -0.151035 0.041016 0.114258
1 5.227658 -0.716057 5.928733 0.913999 -0.405695 -0.004193 0.186523 0.046875
Texture_1.png
1 -5.210605 -0.878402 6.028204 -0.900856 -0.433921 0.013102 0.165039 0.532227
1 -3.764576 -2.252201 4.393648 -0.514907 -0.845571 -0.141000 0.082031 0.208984
1 -3.917639 -3.150821 5.756826 -0.648414 -0.714565 -0.262593 0.360352 0.135742
Texture_1.png
1 5.484168 1.445258 8.035916 0.991346 0.083486 0.101311 0.121094 0.367188
1 4.001043 -3.027664 5.681365 0.665200 -0.694135 -0.275111 0.165039 0.532227
1 5.227658 -0.716057 5.928733 0.913999 -0.405695 -0.004193 0.121094 0.367188
Texture_1.png
1 -5.210605 -0.878402 6.028204 -0.900856 -0.433921 0.013102 0.366211 0.497070
1 -3.917639 -3.150821 5.756826 -0.648414 -0.714565 -0.262593 0.041016 0.114258
1 -5.494005 1.274516 8.140532 -0.991352 0.052649 0.120205 0.022461 0.373047
Texture_1.png
1 -1.093153 -1.830164 2.036471 -0.128266 -0.730648 -0.670597 0.067383 0.032227
1 0.040480 -3.605012 4.749106 0.011539 -0.943986 -0.329783 0.186523 0.046875
1 -3.917639 -3.150821 5.756826 -0.648414 -0.714565 -0.262593 0.223633 0.000000
Texture_1.png
1 4.001043 -3.027664 5.681365 0.665200 -0.694135 -0.275111 0.671875 0.189453
1 0.040480 -3.605012 4.749106 0.011539 -0.943986 -0.329783 0.186523 0.046875
1 1.066487 -1.796575 2.015890 0.121629 -0.693639 -0.709979 0.223633 0.000000
Texture_1.png
1 -2.626398 3.468474 0.924495 -0.232037 0.272159 -0.933857 0.704102 0.127930
1 2.412764 3.546848 0.876475 0.234066 0.312482 -0.920635 0.927734 0.470703
1 1.104334 0.829870 0.828056 0.216530 -0.206775 -0.954127 1.000000 0.525391
Texture_1.png
1 -1.235276 0.793482 0.850351 -0.225194 -0.304050 -0.925657 0.671875 0.189453
1 1.104334 0.829870 0.828056 0.216530 -0.206775 -0.954127 0.704102 0.127930
1 1.066487 -1.796575 2.015890 0.121629 -0.693639 -0.709979 0.671875 0.189453
Texture_1.png
7 -2.340974 -4.004267 9.234199 -0.401293 -0.901397 -0.162625 0.240234 0.825195
1 -3.917639 -3.150821 5.756826 -0.648414 -0.714565 -0.262593 0.013672 0.315430
1 0.040480 -3.605012 4.749106 0.011539 -0.943986 -0.329783 0.324219 0.048828
Texture_1.png
7 -5.456215 -0.676961 8.921143 -0.974336 0.006631 0.225002 0.007813 0.720703
7 -4.632930 -0.110468 11.225745 -0.968441 -0.135881 0.208944 0.166016 1.000000
1 -5.494005 1.274516 8.140532 -0.991352 0.052649 0.120205 0.019531 0.505859
Texture_1.png
7 -3.687649 3.241606 11.986631 -0.698560 0.533250 0.477137 0.330078 0.894531
7 -0.031229 5.313997 11.780748 -0.004128 0.839079 0.543994 0.685547 0.615234
1 -0.062193 6.175209 9.936980 -0.010726 0.923946 0.382373 0.643555 0.296875
Texture_1.png
1 5.484168 1.445258 8.035916 0.991346 0.083486 0.101311 1.000000 0.064453
7 4.725513 0.035083 11.136564 0.978317 -0.117981 0.170227 0.995117 0.626953
7 5.521958 -0.506219 8.816529 0.977768 0.036992 0.206399 0.991211 0.277344
Texture_1.png
1 -0.062193 6.175209 9.936980 -0.010726 0.923946 0.382373 0.643555 0.296875
7 -0.031229 5.313997 11.780748 -0.004128 0.839079 0.543994 0.685547 0.615234
7 3.691123 3.356367 11.916315 0.708517 0.545725 0.447424 0.986328 0.598633
Texture_1.png
7 2.518217 -3.928693 9.187893 0.412488 -0.894073 -0.174608 0.672852 0.629883
7 -2.340974 -4.004267 9.234199 -0.401293 -0.901397 -0.162625 0.240234 0.825195
1 0.040480 -3.605012 4.749106 0.011539 -0.943986 -0.329783 0.324219 0.048828
Texture_1.png
1 -5.494005 1.274516 8.140532 -0.991352 0.052649 0.120205 0.019531 0.505859
7 -4.632930 -0.110468 11.225745 -0.968441 -0.135881 0.208944 0.166016 1.000000
7 -3.687649 3.241606 11.986631 -0.698560 0.533250 0.477137 0.330078 0.894531
Texture_1.png
7 3.691123 3.356367 11.916315 0.708517 0.545725 0.447424 0.986328 0.598633
7 4.725513 0.035083 11.136564 0.978317 -0.117981 0.170227 0.995117 0.626953
1 5.484168 1.445258 8.035916 0.991346 0.083486 0.101311 1.000000 0.064453
Texture_1.png
7 -3.687649 3.241606 11.986631 -0.698560 0.533250 0.477137 0.330078 0.894531
1 -4.179298 4.304509 9.358604 -0.711722 0.627927 0.314894 0.231445 0.490234
1 -5.494005 1.274516 8.140532 -0.991352 0.052649 0.120205 0.019531 0.505859
Texture_1.png
1 5.484168 1.445258 8.035916 0.991346 0.083486 0.101311 1.000000 0.064453
1 4.099325 4.433264 9.279711 0.697723 0.649848 0.301463 0.962891 0.160156
7 3.691123 3.356367 11.916315 0.708517 0.545725 0.447424 0.986328 0.598633
Texture_1.png
7 3.691123 3.356367 11.916315 0.708517 0.545725 0.447424 0.986328 0.598633
1 4.099325 4.433264 9.279711 0.697723 0.649848 0.301463 0.962891 0.160156
1 -0.062193 6.175209 9.936980 -0.010726 0.923946 0.382373 0.643555 0.296875
Texture_1.png
1 -0.062193 6.175209 9.936980 -0.010726 0.923946 0.382373 0.643555 0.296875
1 -4.179298 4.304509 9.358604 -0.711722 0.627927 0.314894 0.231445 0.490234
7 -3.687649 3.241606 11.986631 -0.698560 0.533250 0.477137 0.330078 0.894531
Texture_1.png
7 3.675218 -3.329133 8.781839 0.186222 -0.919889 0.345147 0.771484 0.490234
7 2.518217 -3.928693 9.187893 0.412488 -0.894073 -0.174608 0.672852 0.629883
1 4.001043 -3.027664 5.681365 0.665200 -0.694135 -0.275111 0.712891 0.000977
Texture_1.png
1 -3.917639 -3.150821 5.756826 -0.648414 -0.714565 -0.262593 0.013672 0.315430
7 -2.340974 -4.004267 9.234199 -0.401293 -0.901397 -0.162625 0.240234 0.825195
7 -3.523585 -3.441095 8.850440 -0.150918 -0.925131 0.348361 0.131836 0.778320
Texture_1.png
1 5.484168 1.445258 8.035916 0.991346 0.083486 0.101311 1.000000 0.064453
7 5.521958 -0.506219 8.816529 0.977768 0.036992 0.206399 0.991211 0.277344
7 4.973671 -1.044369 7.078031 0.617589 0.234732 -0.750656 0.877930 0.070313
Texture_1.png
1 4.001043 -3.027664 5.681365 0.665200 -0.694135 -0.275111 0.712891 0.000977
7 4.973671 -1.044369 7.078031 0.617589 0.234732 -0.750656 0.877930 0.070313
7 3.675218 -3.329133 8.781839 0.186222 -0.919889 0.345147 0.771484 0.490234
Texture_1.png
7 -4.924682 -1.198316 7.172355 -0.638778 0.215193 -0.738684 0.000000 0.466797
7 -5.456215 -0.676961 8.921143 -0.974336 0.006631 0.225002 0.007813 0.720703
1 -5.494005 1.274516 8.140532 -0.991352 0.052649 0.120205 0.019531 0.505859
Texture_1.png
7 -3.523585 -3.441095 8.850440 -0.150918 -0.925131 0.348361 0.131836 0.778320
7 -4.924682 -1.198316 7.172355 -0.638778 0.215193 -0.738684 0.000000 0.466797
1 -3.917639 -3.150821 5.756826 -0.648414 -0.714565 -0.262593 0.013672 0.315430
Texture_1.png
1 -5.494005 1.274516 8.140532 -0.991352 0.052649 0.120205 0.019531 0.505859
1 -3.917639 -3.150821 5.756826 -0.648414 -0.714565 -0.262593 0.013672 0.315430
7 -4.924682 -1.198316 7.172355 -0.638778 0.215193 -0.738684 0.000000 0.466797
Texture_1.png
7 4.973671 -1.044369 7.078031 0.617589 0.234732 -0.750656 0.877930 0.070313
1 4.001043 -3.027664 5.681365 0.665200 -0.694135 -0.275111 0.712891 0.000977
1 5.484168 1.445258 8.035916 0.991346 0.083486 0.101311 1.000000 0.064453
Texture_1.png
1 0.040480 -3.605012 4.749106 0.011539 -0.943986 -0.329783 0.324219 0.048828
1 4.001043 -3.027664 5.681365 0.665200 -0.694135 -0.275111 0.712891 0.000977
7 2.518217 -3.928693 9.187893 0.412488 -0.894073 -0.174608 0.672852 0.629883
Texture_1.png
7 -4.614891 -2.074529 9.913095 -0.520185 -0.492228 0.697939 0.092773 0.900391
7 -3.523585 -3.441095 8.850440 -0.150918 -0.925131 0.348361 0.131836 0.778320
7 -2.340974 -4.004267 9.234199 -0.401293 -0.901397 -0.162625 0.240234 0.825195
Texture_1.png
7 2.518217 -3.928693 9.187893 0.412488 -0.894073 -0.174608 0.672852 0.629883
7 3.675218 -3.329133 8.781839 0.186222 -0.919889 0.345147 0.771484 0.490234
7 4.743551 -1.928979 9.823923 0.548442 -0.475608 0.687756 0.923828 0.526367
Texture_1.png
7 -5.456215 -0.676961 8.921143 -0.974336 0.006631 0.225002 0.007813 0.720703
7 -4.614891 -2.074529 9.913095 -0.520185 -0.492228 0.697939 0.092773 0.900391
7 -4.632930 -0.110468 11.225745 -0.968441 -0.135881 0.208944 0.166016 1.000000
Texture_1.png
7 4.725513 0.035083 11.136564 0.978317 -0.117981 0.170227 0.995117 0.626953
7 4.743551 -1.928979 9.823923 0.548442 -0.475608 0.687756 0.923828 0.526367
7 5.521958 -0.506219 8.816529 0.977768 0.036992 0.206399 0.991211 0.277344
Texture_1.png
7 4.743551 -1.928979 9.823923 0.548442 -0.475608 0.687756 0.923828 0.526367
7 4.725513 0.035083 11.136564 0.978317 -0.117981 0.170227 0.995117 0.626953
7 2.518217 -3.928693 9.187893 0.412488 -0.894073 -0.174608 0.672852 0.629883
Texture_1.png
7 -2.340974 -4.004267 9.234199 -0.401293 -0.901397 -0.162625 0.240234 0.825195
7 -4.632930 -0.110468 11.225745 -0.968441 -0.135881 0.208944 0.166016 1.000000
7 -4.614891 -2.074529 9.913095 -0.520185 -0.492228 0.697939 0.092773 0.900391
Texture_1.png
8 -4.887445 -3.288854 6.176961 0.111428 0.343841 -0.932393 0.776367 0.437500
8 -6.229193 -3.351911 7.469491 -0.960124 0.259855 -0.103137 0.868164 0.015625
7 -4.924682 -1.198316 7.172355 -0.638778 0.215193 -0.738684 0.976563 0.295898
Texture_1.png
7 -3.523585 -3.441095 8.850440 -0.150918 -0.925131 0.348361 0.463867 1.000000
7 -4.614891 -2.074529 9.913095 -0.520185 -0.492228 0.697939 0.087891 0.878906
8 -5.261415 -3.861902 8.844049 -0.321774 -0.504350 0.801307 1.000000 0.766602
Texture_1.png
7 -5.456215 -0.676961 8.921143 -0.974336 0.006631 0.225002 0.000000 0.288086
8 -6.229193 -3.351911 7.469491 -0.960124 0.259855 -0.103137 0.976563 0.295898
8 -5.261415 -3.861902 8.844049 -0.321774 -0.504350 0.801307 1.000000 0.766602
Texture_1.png
8 -5.261415 -3.861902 8.844049 -0.321774 -0.504350 0.801307 1.000000 0.766602
7 -4.614891 -2.074529 9.913095 -0.520185 -0.492228 0.697939 0.087891 0.878906
7 -5.456215 -0.676961 8.921143 -0.974336 0.006631 0.225002 0.000000 0.288086
Texture_1.png
8 -6.229193 -3.351911 7.469491 -0.960124 0.259855 -0.103137 0.976563 0.295898
7 -5.456215 -0.676961 8.921143 -0.974336 0.006631 0.225002 0.000000 0.288086
7 -4.924682 -1.198316 7.172355 -0.638778 0.215193 -0.738684 0.271484 0.000000
Texture_1.png
8 -3.763104 -3.771571 7.834441 0.940737 -0.313730 -0.128788 0.887695 0.955078
8 -4.887445 -3.288854 6.176961 0.111428 0.343841 -0.932393 0.776367 0.437500
7 -4.924682 -1.198316 7.172355 -0.638778 0.215193 -0.738684 0.271484 0.000000
Texture_1.png
7 -3.523585 -3.441095 8.850440 -0.150918 -0.925131 0.348361 0.463867 1.000000
8 -5.261415 -3.861902 8.844049 -0.321774 -0.504350 0.801307 1.000000 0.766602
8 -3.763104 -3.771571 7.834441 0.940737 -0.313730 -0.128788 0.887695 0.955078
Texture_1.png
7 -4.924682 -1.198316 7.172355 -0.638778 0.215193 -0.738684 0.271484 0.000000
7 -3.523585 -3.441095 8.850440 -0.150918 -0.925131 0.348361 0.463867 1.000000
8 -3.763104 -3.771571 7.834441 0.940737 -0.313730 -0.128788 0.887695 0.955078
Texture_1.png
8 -3.763104 -3.771571 7.834441 0.940737 -0.313730 -0.128788 0.074219 1.000000
9 -5.105562 -5.706798 7.436971 0.545268 -0.625007 0.558613 0.924805 0.866211
9 -4.874722 -4.958532 6.098125 0.664756 -0.159496 -0.729836 0.949219 0.285156
Texture_1.png
9 -5.105562 -5.706798 7.436971 0.545268 -0.625007 0.558613 0.924805 0.866211
8 -3.763104 -3.771571 7.834441 0.940737 -0.313730 -0.128788 0.074219 1.000000
8 -5.261415 -3.861902 8.844049 -0.321774 -0.504350 0.801307 0.042969 0.812500
Texture_1.png
9 -6.214679 -4.658935 6.143433 -0.681510 0.123575 -0.721300 1.000000 0.257813
8 -6.229193 -3.351911 7.469491 -0.960124 0.259855 -0.103137 0.004883 0.310547
8 -4.887445 -3.288854 6.176961 0.111428 0.343841 -0.932393 0.000000 0.000000
Texture_1.png
8 -6.229193 -3.351911 7.469491 -0.960124 0.259855 -0.103137 0.004883 0.310547
9 -6.214679 -4.658935 6.143433 -0.681510 0.123575 -0.721300 1.000000 0.257813
9 -6.229931 -5.364987 7.500692 -0.838729 -0.363344 0.405604 0.960938 0.837891
Texture_1.png
8 -5.261415 -3.861902 8.844049 -0.321774 -0.504350 0.801307 0.042969 0.812500
9 -6.229931 -5.364987 7.500692 -0.838729 -0.363344 0.405604 0.960938 0.837891
9 -5.105562 -5.706798 7.436971 0.545268 -0.625007 0.558613 0.924805 0.866211
Texture_1.png
9 -4.874722 -4.958532 6.098125 0.664756 -0.159496 -0.729836 0.949219 0.285156
8 -4.887445 -3.288854 6.176961 0.111428 0.343841 -0.932393 0.008789 0.441406
8 -3.763104 -3.771571 7.834441 0.940737 -0.313730 -0.128788 0.074219 1.000000
Texture_1.png
8 -4.887445 -3.288854 6.176961 0.111428 0.343841 -0.932393 0.000000 0.000000
9 -4.874722 -4.958532 6.098125 0.664756 -0.159496 -0.729836 0.949219 0.285156
9 -6.214679 -4.658935 6.143433 -0.681510 0.123575 -0.721300 1.000000 0.257813
Texture_1.png
9 -6.229931 -5.364987 7.500692 -0.838729 -0.363344 0.405604 0.960938 0.837891
8 -5.261415 -3.861902 8.844049 -0.321774 -0.504350 0.801307 0.042969 0.812500
8 -6.229193 -3.351911 7.469491 -0.960124 0.259855 -0.103137 0.004883 0.310547
Texture_1.png
9 -6.229931 -5.364987 7.500692 -0.838729 -0.363344 0.405604 0.052734 0.937500
9 -6.214679 -4.658935 6.143433 -0.681510 0.123575 -0.721300 0.121094 0.000000
10 -5.800209 -6.135223 5.994813 -0.361922 -0.502791 -0.784993 0.977539 0.285156
Texture_1.png
10 -5.746900 -6.555288 6.773531 -0.097969 -0.962563 0.252735 1.000000 0.842773
9 -5.105562 -5.706798 7.436971 0.545268 -0.625007 0.558613 0.000000 1.000000
9 -6.229931 -5.364987 7.500692 -0.838729 -0.363344 0.405604 0.052734 0.937500
Texture_1.png
9 -4.874722 -4.958532 6.098125 0.664756 -0.159496 -0.729836 0.057617 0.062500
9 -5.105562 -5.706798 7.436971 0.545268 -0.625007 0.558613 0.000000 1.000000
10 -5.009582 -6.158514 6.469014 0.737156 -0.629085 -0.246683 0.725586 0.550781
Texture_1.png
10 -5.009582 -6.158514 6.469014 0.737156 -0.629085 -0.246683 0.725586 0.550781
9 -5.105562 -5.706798 7.436971 0.545268 -0.625007 0.558613 0.000000 1.000000
10 -5.746900 -6.555288 6.773531 -0.097969 -0.962563 0.252735 1.000000 0.842773
Texture_1.png
10 -5.800209 -6.135223 5.994813 -0.361922 -0.502791 -0.784993 0.977539 0.285156
9 -6.214679 -4.658935 6.143433 -0.681510 0.123575 -0.721300 0.121094 0.000000
9 -4.874722 -4.958532 6.098125 0.664756 -0.159496 -0.729836 0.057617 0.062500
Texture_1.png
10 -5.009582 -6.158514 6.469014 0.737156 -0.629085 -0.246683 0.725586 0.550781
10 -5.800209 -6.135223 5.994813 -0.361922 -0.502791 -0.784993 0.977539 0.285156
9 -4.874722 -4.958532 6.098125 0.664756 -0.159496 -0.729836 0.057617 0.062500
Texture_1.png
10 -5.800209 -6.135223 5.994813 -0.361922 -0.502791 -0.784993 0.977539 0.285156
10 -5.746900 -6.555288 6.773531 -0.097969 -0.962563 0.252735 1.000000 0.842773
9 -6.229931 -5.364987 7.500692 -0.838729 -0.363344 0.405604 0.052734 0.937500
Texture_1.png
10 -5.800209 -6.135223 5.994813 -0.361922 -0.502791 -0.784993 0.977539 0.285156
10 -5.009582 -6.158514 6.469014 0.737156 -0.629085 -0.246683 0.725586 0.550781
10 -5.746900 -6.555288 6.773531 -0.097969 -0.962563 0.252735 1.000000 0.842773
Texture_1.png
7 4.973671 -1.044369 7.078031 0.617589 0.234732 -0.750656 0.976563 0.295898
12 6.349944 -3.156269 7.349621 0.943230 0.309706 -0.120000 0.868164 0.015625
12 4.982502 -3.135348 6.082907 -0.146795 0.338410 -0.929478 0.776367 0.437500
Texture_1.png
12 5.424855 -3.695700 8.742217 0.359906 -0.488903 0.794633 1.000000 0.766602
7 4.743551 -1.928979 9.823923 0.548442 -0.475608 0.687756 0.087891 0.878906
7 3.675218 -3.329133 8.781839 0.186222 -0.919889 0.345147 0.463867 1.000000
Texture_1.png
12 5.424855 -3.695700 8.742217 0.359906 -0.488903 0.794633 1.000000 0.766602
12 6.349944 -3.156269 7.349621 0.943230 0.309706 -0.120000 0.976563 0.295898
7 5.521958 -0.506219 8.816529 0.977768 0.036992 0.206399 0.000000 0.288086
Texture_1.png
7 5.521958 -0.506219 8.816529 0.977768 0.036992 0.206399 0.000000 0.288086
7 4.743551 -1.928979 9.823923 0.548442 -0.475608 0.687756 0.087891 0.878906
12 5.424855 -3.695700 8.742217 0.359906 -0.488903 0.794633 1.000000 0.766602
Texture_1.png
7 4.973671 -1.044369 7.078031 0.617589 0.234732 -0.750656 0.271484 0.000000
7 5.521958 -0.506219 8.816529 0.977768 0.036992 0.206399 0.000000 0.288086
12 6.349944 -3.156269 7.349621 0.943230 0.309706 -0.120000 0.976563 0.295898
Texture_1.png
7 4.973671 -1.044369 7.078031 0.617589 0.234732 -0.750656 0.271484 0.000000
12 4.982502 -3.135348 6.082907 -0.146795 0.338410 -0.929478 0.776367 0.437500
12 3.905498 -3.652302 7.761365 -0.926103 -0.360880 -0.109998 0.887695 0.955078
Texture_1.png
12 3.905498 -3.652302 7.761365 -0.926103 -0.360880 -0.109998 0.887695 0.955078
12 5.424855 -3.695700 8.742217 0.359906 -0.488903 0.794633 1.000000 0.766602
7 3.675218 -3.329133 8.781839 0.186222 -0.919889 0.345147 0.463867 1.000000
Texture_1.png
12 3.905498 -3.652302 7.761365 -0.926103 -0.360880 -0.109998 0.887695 0.955078
7 3.675218 -3.329133 8.781839 0.186222 -0.919889 0.345147 0.463867 1.000000
7 4.973671 -1.044369 7.078031 0.617589 0.234732 -0.750656 0.271484 0.000000
Texture_1.png
13 5.067616 -4.819520 6.013717 -0.671230 -0.213371 -0.709875 0.949219 0.285156
13 5.400290 -5.535350 7.348863 -0.481555 -0.661151 0.575312 0.924805 0.866211
12 3.905498 -3.652302 7.761365 -0.926103 -0.360880 -0.109998 0.074219 1.000000
Texture_1.png
12 5.424855 -3.695700 8.742217 0.359906 -0.488903 0.794633 0.042969 0.812500
12 3.905498 -3.652302 7.761365 -0.926103 -0.360880 -0.109998 0.074219 1.000000
13 5.400290 -5.535350 7.348863 -0.481555 -0.661151 0.575312 0.924805 0.866211
Texture_1.png
12 4.982502 -3.135348 6.082907 -0.146795 0.338410 -0.929478 0.000000 0.000000
12 6.349944 -3.156269 7.349621 0.943230 0.309706 -0.120000 0.004883 0.310547
13 6.379368 -4.411349 6.014910 0.653108 0.171213 -0.737656 1.000000 0.257813
Texture_1.png
13 6.494401 -5.102525 7.375036 0.875248 -0.295300 0.383065 0.960938 0.837891
13 6.379368 -4.411349 6.014910 0.653108 0.171213 -0.737656 1.000000 0.257813
12 6.349944 -3.156269 7.349621 0.943230 0.309706 -0.120000 0.004883 0.310547
Texture_1.png
13 5.400290 -5.535350 7.348863 -0.481555 -0.661151 0.575312 0.924805 0.866211
13 6.494401 -5.102525 7.375036 0.875248 -0.295300 0.383065 0.960938 0.837891
12 5.424855 -3.695700 8.742217 0.359906 -0.488903 0.794633 0.042969 0.812500
Texture_1.png
12 3.905498 -3.652302 7.761365 -0.926103 -0.360880 -0.109998 0.074219 1.000000
12 4.982502 -3.135348 6.082907 -0.146795 0.338410 -0.929478 0.008789 0.441406
13 5.067616 -4.819520 6.013717 -0.671230 -0.213371 -0.709875 0.949219 0.285156
Texture_1.png
13 6.379368 -4.411349 6.014910 0.653108 0.171213 -0.737656 1.000000 0.257813
13 5.067616 -4.819520 6.013717 -0.671230 -0.213371 -0.709875 0.949219 0.285156
12 4.982502 -3.135348 6.082907 -0.146795 0.338410 -0.929478 0.000000 0.000000
Texture_1.png
12 6.349944 -3.156269 7.349621 0.943230 0.309706 -0.120000 0.004883 0.310547
12 5.424855 -3.695700 8.742217 0.359906 -0.488903 0.794633 0.042969 0.812500
13 6.494401 -5.102525 7.375036 0.875248 -0.295300 0.383065 0.960938 0.837891
Texture_1.png
14 6.082510 -5.917687 5.887939 0.377250 -0.478118 -0.793149 0.977539 0.285156
13 6.379368 -4.411349 6.014910 0.653108 0.171213 -0.737656 0.121094 0.000000
13 6.494401 -5.102525 7.375036 0.875248 -0.295300 0.383065 0.052734 0.937500
Texture_1.png
13 6.494401 -5.102525 7.375036 0.875248 -0.295300 0.383065 0.052734 0.937500
13 5.400290 -5.535350 7.348863 -0.481555 -0.661151 0.575312 0.000000 1.000000
14 6.087910 -6.334224 6.670352 0.184100 -0.949246 0.255026 1.000000 0.842773
Texture_1.png
14 5.311535 -6.001400 6.387031 -0.690585 -0.689094 -0.219638 0.725586 0.550781
13 5.400290 -5.535350 7.348863 -0.481555 -0.661151 0.575312 0.000000 1.000000
13 5.067616 -4.819520 6.013717 -0.671230 -0.213371 -0.709875 0.057617 0.062500
Texture_1.png
14 6.087910 -6.334224 6.670352 0.184100 -0.949246 0.255026 1.000000 0.842773
13 5.400290 -5.535350 7.348863 -0.481555 -0.661151 0.575312 0.000000 1.000000
14 5.311535 -6.001400 6.387031 -0.690585 -0.689094 -0.219638 0.725586 0.550781
Texture_1.png
13 5.067616 -4.819520 6.013717 -0.671230 -0.213371 -0.709875 0.057617 0.062500
13 6.379368 -4.411349 6.014910 0.653108 0.171213 -0.737656 0.121094 0.000000
14 6.082510 -5.917687 5.887939 0.377250 -0.478118 -0.793149 0.977539 0.285156
Texture_1.png
13 5.067616 -4.819520 6.013717 -0.671230 -0.213371 -0.709875 0.057617 0.062500
14 6.082510 -5.917687 5.887939 0.377250 -0.478118 -0.793149 0.977539 0.285156
14 5.311535 -6.001400 6.387031 -0.690585 -0.689094 -0.219638 0.725586 0.550781
Texture_1.png
13 6.494401 -5.102525 7.375036 0.875248 -0.295300 0.383065 0.052734 0.937500
14 6.087910 -6.334224 6.670352 0.184100 -0.949246 0.255026 1.000000 0.842773
14 6.082510 -5.917687 5.887939 0.377250 -0.478118 -0.793149 0.977539 0.285156
Texture_1.png
14 6.087910 -6.334224 6.670352 0.184100 -0.949246 0.255026 1.000000 0.842773
14 5.311535 -6.001400 6.387031 -0.690585 -0.689094 -0.219638 0.725586 0.550781
14 6.082510 -5.917687 5.887939 0.377250 -0.478118 -0.793149 0.977539 0.285156
Texture_1.png
7 -4.632930 -0.110468 11.225745 -0.968441 -0.135881 0.208944 0.435547 0.820313
7 -2.340974 -4.004267 9.234199 -0.401293 -0.901397 -0.162625 0.766602 1.000000
18 -3.019392 -4.482253 10.370690 -0.703497 -0.536576 -0.466024 0.812500 0.870117
Texture_1.png
7 3.691123 3.356367 11.916315 0.708517 0.545725 0.447424 0.158203 0.784180
7 -0.031229 5.313997 11.780748 -0.004128 0.839079 0.543994 0.000000 0.839844
18 0.285865 2.490795 15.072597 0.027438 0.688626 0.724597 0.142578 0.278320
Texture_1.png
18 -0.068121 -6.088700 10.397664 -0.035629 -0.823896 -0.565620 0.940430 0.920898
7 2.518217 -3.928693 9.187893 0.412488 -0.894073 -0.174608 0.766602 1.000000
18 2.912990 -4.570329 10.083132 0.655380 -0.536790 -0.531350 0.812500 0.870117
Texture_1.png
7 3.691123 3.356367 11.916315 0.708517 0.545725 0.447424 0.158203 0.784180
18 0.285865 2.490795 15.072597 0.027438 0.688626 0.724597 0.142578 0.278320
18 2.972987 0.308376 15.403841 0.265591 0.838740 0.475369 0.291992 0.221680
Texture_1.png
18 -2.420087 0.388446 15.665265 -0.198354 0.848409 0.490773 0.291992 0.221680
18 0.285865 2.490795 15.072597 0.027438 0.688626 0.724597 0.142578 0.278320
7 -3.687649 3.241606 11.986631 -0.698560 0.533250 0.477137 0.158203 0.784180
Texture_1.png
18 -3.665926 -0.991228 14.554278 -0.993915 -0.083425 0.071926 0.423828 0.346680
18 -2.420087 0.388446 15.665265 -0.198354 0.848409 0.490773 0.291992 0.221680
7 -3.687649 3.241606 11.986631 -0.698560 0.533250 0.477137 0.158203 0.784180
Texture_1.png
7 3.691123 3.356367 11.916315 0.708517 0.545725 0.447424 0.158203 0.784180
18 2.972987 0.308376 15.403841 0.265591 0.838740 0.475369 0.291992 0.221680
18 4.064147 -1.105995 14.179582 0.994609 -0.102397 -0.016356 0.423828 0.346680
Texture_1.png
18 4.064147 -1.105995 14.179582 0.994609 -0.102397 -0.016356 0.423828 0.346680
7 4.725513 0.035083 11.136564 0.978317 -0.117981 0.170227 0.435547 0.820313
7 3.691123 3.356367 11.916315 0.708517 0.545725 0.447424 0.158203 0.784180
Texture_1.png
7 -3.687649 3.241606 11.986631 -0.698560 0.533250 0.477137 0.158203 0.784180
7 -4.632930 -0.110468 11.225745 -0.968441 -0.135881 0.208944 0.435547 0.820313
18 -3.665926 -0.991228 14.554278 -0.993915 -0.083425 0.071926 0.423828 0.346680
Texture_1.png
18 2.912990 -4.570329 10.083132 0.655380 -0.536790 -0.531350 0.812500 0.870117
7 2.518217 -3.928693 9.187893 0.412488 -0.894073 -0.174608 0.766602 1.000000
7 4.725513 0.035083 11.136564 0.978317 -0.117981 0.170227 0.435547 0.820313
Texture_1.png
18 -3.019392 -4.482253 10.370690 -0.703497 -0.536576 -0.466024 0.812500 0.870117
7 -2.340974 -4.004267 9.234199 -0.401293 -0.901397 -0.162625 0.766602 1.000000
18 -0.068121 -6.088700 10.397664 -0.035629 -0.823896 -0.565620 0.940430 0.920898
Texture_1.png
18 -0.068121 -6.088700 10.397664 -0.035629 -0.823896 -0.565620 0.940430 0.920898
7 -2.340974 -4.004267 9.234199 -0.401293 -0.901397 -0.162625 0.766602 1.000000
7 2.518217 -3.928693 9.187893 0.412488 -0.894073 -0.174608 0.766602 1.000000
Texture_1.png
7 -0.031229 5.313997 11.780748 -0.004128 0.839079 0.543994 0.000000 0.839844
7 -3.687649 3.241606 11.986631 -0.698560 0.533250 0.477137 0.158203 0.784180
18 0.285865 2.490795 15.072597 0.027438 0.688626 0.724597 0.142578 0.278320
Texture_1.png
18 0.179384 -4.954079 15.156189 0.019259 -0.773024 0.634084 0.817383 0.198242
18 0.069716 -5.794286 13.151061 0.010789 -0.871869 0.489621 0.911133 0.458008
18 1.778357 -4.833660 14.642587 0.479055 -0.814731 0.326678 0.810547 0.256836
Texture_1.png
18 3.291610 -2.509740 15.403869 0.727760 -0.594923 0.341223 0.443359 0.329102
18 2.452941 -3.926723 15.267888 0.525242 -0.591390 0.611865 1.320313 0.739258
18 3.056396 -4.007980 12.869379 0.749778 -0.594437 0.290650 0.769531 0.473633
Texture_1.png
18 2.452941 -3.926723 15.267888 0.525242 -0.591390 0.611865 0.505859 0.581055
18 3.291610 -2.509740 15.403869 0.727760 -0.594923 0.341223 0.693359 0.189453
18 2.353330 -1.969107 16.331472 0.114594 -0.192221 0.974638 0.547852 0.151367
Texture_1.png
18 -1.781360 -1.907720 16.531893 -0.025454 -0.190142 0.981427 0.477539 0.050781
18 -2.820540 -2.418993 15.700150 -0.708652 -0.573597 0.410851 0.532227 0.162109
18 -2.041287 -3.859998 15.485734 -0.480898 -0.576453 0.660636 0.670898 0.125977
Texture_1.png
18 -1.457488 -4.785618 14.799438 -0.469141 -0.800653 0.372641 0.810547 0.256836
18 0.069716 -5.794286 13.151061 0.010789 -0.871869 0.489621 0.911133 0.458008
18 0.179384 -4.954079 15.156189 0.019259 -0.773024 0.634084 0.817383 0.198242
Texture_1.png
18 -2.041287 -3.859998 15.485734 -0.480898 -0.576453 0.660636 0.670898 0.125977
18 -1.457488 -4.785618 14.799438 -0.469141 -0.800653 0.372641 0.810547 0.256836
18 0.179384 -4.954079 15.156189 0.019259 -0.773024 0.634084 0.817383 0.198242
Texture_1.png
18 0.318577 0.896416 16.235775 0.050400 0.382499 0.922580 0.264648 0.093750
18 0.285865 2.490795 15.072597 0.027438 0.688626 0.724597 0.142578 0.278320
18 -2.420087 0.388446 15.665265 -0.198354 0.848409 0.490773 0.291992 0.221680
Texture_1.png
18 -2.420087 0.388446 15.665265 -0.198354 0.848409 0.490773 0.291992 0.221680
18 -1.781360 -1.907720 16.531893 -0.025454 -0.190142 0.981427 0.477539 0.050781
18 0.318577 0.896416 16.235775 0.050400 0.382499 0.922580 0.264648 0.093750
Texture_1.png
18 2.972987 0.308376 15.403841 0.265591 0.838740 0.475369 0.291992 0.221680
18 0.285865 2.490795 15.072597 0.027438 0.688626 0.724597 0.142578 0.278320
18 0.318577 0.896416 16.235775 0.050400 0.382499 0.922580 0.264648 0.093750
Texture_1.png
18 0.318577 0.896416 16.235775 0.050400 0.382499 0.922580 0.264648 0.093750
18 2.353330 -1.969107 16.331472 0.114594 -0.192221 0.974638 0.477539 0.050781
18 2.972987 0.308376 15.403841 0.265591 0.838740 0.475369 0.291992 0.221680
Texture_1.png
18 -1.781360 -1.907720 16.531893 -0.025454 -0.190142 0.981427 0.477539 0.050781
18 -2.041287 -3.859998 15.485734 -0.480898 -0.576453 0.660636 0.670898 0.125977
18 0.262742 -3.478770 16.423983 0.036746 -0.445506 0.894525 0.649414 0.034180
Texture_1.png
18 2.452941 -3.926723 15.267888 0.525242 -0.591390 0.611865 0.543945 -0.034180
18 0.262742 -3.478770 16.423983 0.036746 -0.445506 0.894525 0.626953 0.031250
18 0.179384 -4.954079 15.156189 0.019259 -0.773024 0.634084 0.626953 0.031250
Texture_1.png
18 0.262742 -3.478770 16.423983 0.036746 -0.445506 0.894525 0.495117 0.043945
18 2.452941 -3.926723 15.267888 0.525242 -0.591390 0.611865 0.622070 0.050781
18 2.353330 -1.969107 16.331472 0.114594 -0.192221 0.974638 0.481445 1.291016
Texture_1.png
18 2.353330 -1.969107 16.331472 0.114594 -0.192221 0.974638 0.477539 0.050781
18 0.313771 -1.446643 16.854282 0.048724 0.021541 0.998580 0.432617 0.000000
18 0.262742 -3.478770 16.423983 0.036746 -0.445506 0.894525 0.649414 0.034180
Texture_1.png
18 0.262742 -3.478770 16.423983 0.036746 -0.445506 0.894525 0.649414 0.034180
18 0.313771 -1.446643 16.854282 0.048724 0.021541 0.998580 0.432617 0.000000
18 -1.781360 -1.907720 16.531893 -0.025454 -0.190142 0.981427 0.477539 0.050781
Texture_1.png
18 0.179384 -4.954079 15.156189 0.019259 -0.773024 0.634084 0.817383 0.198242
18 0.262742 -3.478770 16.423983 0.036746 -0.445506 0.894525 0.649414 0.034180
18 -2.041287 -3.859998 15.485734 -0.480898 -0.576453 0.660636 0.670898 0.125977
Texture_1.png
18 0.179384 -4.954079 15.156189 0.019259 -0.773024 0.634084 0.626953 0.031250
18 1.778357 -4.833660 14.642587 0.479055 -0.814731 0.326678 -0.306641 0.401367
18 2.452941 -3.926723 15.267888 0.525242 -0.591390 0.611865 0.543945 -0.034180
Texture_1.png
18 -2.875985 -3.919902 13.156939 -0.735434 -0.572387 0.362644 0.746094 0.422852
18 -2.041287 -3.859998 15.485734 -0.480898 -0.576453 0.660636 0.670898 0.125977
18 -2.820540 -2.418993 15.700150 -0.708652 -0.573597 0.410851 0.532227 0.162109
Texture_1.png
18 2.413373 -5.609803 11.248920 0.587733 -0.806544 0.063689 0.901367 0.714844
18 -0.068121 -6.088700 10.397664 -0.035629 -0.823896 -0.565620 0.940430 0.920898
18 2.912990 -4.570329 10.083132 0.655380 -0.536790 -0.531350 0.812500 0.870117
Texture_1.png
18 -0.068121 -6.088700 10.397664 -0.035629 -0.823896 -0.565620 0.940430 0.920898
18 -2.440394 -5.537740 11.484199 -0.602449 -0.788874 0.121382 0.901367 0.714844
18 -3.019392 -4.482253 10.370690 -0.703497 -0.536576 -0.466024 0.812500 0.870117
Texture_1.png
18 4.064147 -1.105995 14.179582 0.994609 -0.102397 -0.016356 -0.630859 0.757813
18 3.291610 -2.509740 15.403869 0.727760 -0.594923 0.341223 0.175781 1.264648
18 3.056396 -4.007980 12.869379 0.749778 -0.594437 0.290650 1.423828 0.314453
Texture_1.png
18 -2.875985 -3.919902 13.156939 -0.735434 -0.572387 0.362644 0.746094 0.422852
18 -2.820540 -2.418993 15.700150 -0.708652 -0.573597 0.410851 0.532227 0.162109
18 -3.665926 -0.991228 14.554278 -0.993915 -0.083425 0.071926 0.423828 0.346680
Texture_1.png
18 -1.781360 -1.907720 16.531893 -0.025454 -0.190142 0.981427 0.477539 0.050781
18 0.313771 -1.446643 16.854282 0.048724 0.021541 0.998580 0.432617 0.000000
18 0.318577 0.896416 16.235775 0.050400 0.382499 0.922580 0.264648 0.093750
Texture_1.png
18 0.318577 0.896416 16.235775 0.050400 0.382499 0.922580 0.264648 0.093750
18 0.313771 -1.446643 16.854282 0.048724 0.021541 0.998580 0.432617 0.000000
18 2.353330 -1.969107 16.331472 0.114594 -0.192221 0.974638 0.477539 0.050781
Texture_1.png
1 -5.887987 1.931904 5.653722 -0.999493 0.026375 0.017858 0.078125 0.383789
26 -5.292566 -0.603211 3.953261 -0.900409 -0.420286 -0.112351 0.707031 0.255859
1 -5.210605 -0.878402 6.028204 -0.900856 -0.433921 0.013102 0.607422 0.106445
Texture_1.png
26 -1.410835 0.751120 0.985545 -0.018883 -0.236225 -0.971515 0.863281 0.410156
1 -1.093153 -1.830164 2.036471 -0.128266 -0.730648 -0.670597 0.863281 0.410156
26 -1.261783 -1.741709 2.008036 0.043163 -0.569607 -0.820783 0.863281 0.410156
Texture_1.png
26 -5.292566 -0.603211 3.953261 -0.900409 -0.420286 -0.112351 0.707031 0.255859
1 -5.887987 1.931904 5.653722 -0.999493 0.026375 0.017858 0.580078 0.583008
26 -5.647980 1.461588 3.390774 -0.948542 0.016874 -0.316201 0.580078 0.583008
Texture_1.png
1 -3.764576 -2.252201 4.393648 -0.514907 -0.845571 -0.141000 0.607422 0.106445
1 -5.210605 -0.878402 6.028204 -0.900856 -0.433921 0.013102 0.772461 0.170898
26 -5.292566 -0.603211 3.953261 -0.900409 -0.420286 -0.112351 0.538086 0.000000
Texture_1.png
26 -4.268600 -1.851324 2.987133 -0.643703 -0.696834 -0.316335 0.854492 0.173828
26 -2.930199 -2.399162 2.866488 -0.105366 -0.923537 -0.368751 0.951172 0.359375
1 -3.764576 -2.252201 4.393648 -0.514907 -0.845571 -0.141000 1.000000 0.352539
Texture_1.png
26 -2.419403 2.144634 0.790846 -0.010909 0.055760 -0.998385 0.766602 0.737305
1 -2.626398 3.468474 0.924495 -0.232037 0.272159 -0.933857 0.528320 0.956055
26 -1.410835 0.751120 0.985545 -0.018883 -0.236225 -0.971515 0.582031 0.922852
Texture_1.png
26 -5.647980 1.461588 3.390774 -0.948542 0.016874 -0.316201 0.388672 0.926758
1 -5.887987 1.931904 5.653722 -0.999493 0.026375 0.017858 0.078125 0.383789
1 -5.217810 3.890480 3.609378 -0.829406 0.413278 -0.375880 0.078125 0.383789
Texture_1.png
1 -2.626398 3.468474 0.924495 -0.232037 0.272159 -0.933857 0.235352 1.000000
26 -2.419403 2.144634 0.790846 -0.010909 0.055760 -0.998385 0.528320 0.956055
26 -4.182221 2.164471 1.286302 -0.597109 0.141612 -0.789561 0.235352 1.000000
Texture_1.png
1 -1.093153 -1.830164 2.036471 -0.128266 -0.730648 -0.670597 0.863281 0.410156
1 -3.764576 -2.252201 4.393648 -0.514907 -0.845571 -0.141000 0.867188 0.150391
26 -2.930199 -2.399162 2.866488 -0.105366 -0.923537 -0.368751 0.772461 0.170898
Texture_1.png
26 -2.930199 -2.399162 2.866488 -0.105366 -0.923537 -0.368751 0.772461 0.170898
26 -1.261783 -1.741709 2.008036 0.043163 -0.569607 -0.820783 0.867188 0.150391
1 -1.093153 -1.830164 2.036471 -0.128266 -0.730648 -0.670597 0.863281 0.410156
Texture_1.png
26 -5.292566 -0.603211 3.953261 -0.900409 -0.420286 -0.112351 0.538086 0.000000
26 -4.268600 -1.851324 2.987133 -0.643703 -0.696834 -0.316335 0.707031 0.255859
1 -3.764576 -2.252201 4.393648 -0.514907 -0.845571 -0.141000 0.607422 0.106445
Texture_1.png
1 -5.217810 3.890480 3.609378 -0.829406 0.413278 -0.375880 0.399414 0.997070
1 -2.626398 3.468474 0.924495 -0.232037 0.272159 -0.933857 0.235352 1.000000
26 -4.182221 2.164471 1.286302 -0.597109 0.141612 -0.789561 0.388672 0.926758
Texture_1.png
26 -5.647980 1.461588 3.390774 -0.948542 0.016874 -0.316201 0.388672 0.926758
1 -5.217810 3.890480 3.609378 -0.829406 0.413278 -0.375880 0.078125 0.383789
26 -4.182221 2.164471 1.286302 -0.597109 0.141612 -0.789561 0.388672 0.926758
Texture_1.png
26 -1.410835 0.751120 0.985545 -0.018883 -0.236225 -0.971515 0.000000 0.000000
1 -2.626398 3.468474 0.924495 -0.232037 0.272159 -0.933857 0.000000 0.000000
1 -1.235276 0.793482 0.850351 -0.225194 -0.304050 -0.925657 0.000000 0.000000
Texture_1.png
1 -1.235276 0.793482 0.850351 -0.225194 -0.304050 -0.925657 0.000000 0.000000
1 -1.093153 -1.830164 2.036471 -0.128266 -0.730648 -0.670597 0.000000 0.000000
26 -1.410835 0.751120 0.985545 -0.018883 -0.236225 -0.971515 0.000000 0.000000
Texture_1.png
26 -4.268600 -1.851324 2.987133 -0.643703 -0.696834 -0.316335 0.951172 0.359375
26 -5.292566 -0.603211 3.953261 -0.900409 -0.420286 -0.112351 0.707031 0.255859
26 -5.057556 0.349637 2.233595 -0.772098 -0.236455 -0.589877 0.580078 0.583008
Texture_1.png
26 -4.182221 2.164471 1.286302 -0.597109 0.141612 -0.789561 0.388672 0.926758
26 -5.057556 0.349637 2.233595 -0.772098 -0.236455 -0.589877 0.388672 0.926758
26 -5.647980 1.461588 3.390774 -0.948542 0.016874 -0.316201 0.388672 0.926758
Texture_1.png
26 -5.647980 1.461588 3.390774 -0.948542 0.016874 -0.316201 0.580078 0.583008
26 -5.057556 0.349637 2.233595 -0.772098 -0.236455 -0.589877 0.580078 0.583008
26 -5.292566 -0.603211 3.953261 -0.900409 -0.420286 -0.112351 0.707031 0.255859
Texture_1.png
26 -2.419403 2.144634 0.790846 -0.010909 0.055760 -0.998385 0.789063 0.362305
26 -1.410835 0.751120 0.985545 -0.018883 -0.236225 -0.971515 0.426758 0.000977
27 -3.023500 0.260848 0.833513 -0.238217 -0.129630 -0.962522 0.800781 0.327148
Texture_1.png
27 -2.983919 -1.428047 1.271312 -0.198996 -0.553711 -0.808582 0.426758 0.000977
26 -2.930199 -2.399162 2.866488 -0.105366 -0.923537 -0.368751 0.216797 0.061523
26 -4.268600 -1.851324 2.987133 -0.643703 -0.696834 -0.316335 0.426758 0.000977
Texture_1.png
26 -1.261783 -1.741709 2.008036 0.043163 -0.569607 -0.820783 0.512695 0.354492
26 -2.930199 -2.399162 2.866488 -0.105366 -0.923537 -0.368751 0.216797 0.061523
27 -2.983919 -1.428047 1.271312 -0.198996 -0.553711 -0.808582 0.216797 0.061523
Texture_1.png
26 -1.410835 0.751120 0.985545 -0.018883 -0.236225 -0.971515 0.532227 0.126953
26 -1.261783 -1.741709 2.008036 0.043163 -0.569607 -0.820783 0.512695 0.354492
27 -2.983919 -1.428047 1.271312 -0.198996 -0.553711 -0.808582 0.216797 0.061523
Texture_1.png
27 -3.023500 0.260848 0.833513 -0.238217 -0.129630 -0.962522 0.532227 0.126953
26 -1.410835 0.751120 0.985545 -0.018883 -0.236225 -0.971515 0.800781 0.327148
27 -2.983919 -1.428047 1.271312 -0.198996 -0.553711 -0.808582 0.426758 0.000977
Texture_1.png
26 -5.057556 0.349637 2.233595 -0.772098 -0.236455 -0.589877 0.563477 0.371094
26 -4.182221 2.164471 1.286302 -0.597109 0.141612 -0.789561 0.905273 0.919922
27 -3.023500 0.260848 0.833513 -0.238217 -0.129630 -0.962522 0.789063 0.362305
Texture_1.png
26 -5.057556 0.349637 2.233595 -0.772098 -0.236455 -0.589877 0.032227 0.436523
27 -3.023500 0.260848 0.833513 -0.238217 -0.129630 -0.962522 0.032227 0.436523
27 -2.983919 -1.428047 1.271312 -0.198996 -0.553711 -0.808582 0.426758 0.000977
Texture_1.png
27 -2.983919 -1.428047 1.271312 -0.198996 -0.553711 -0.808582 0.426758 0.000977
26 -4.268600 -1.851324 2.987133 -0.643703 -0.696834 -0.316335 0.426758 0.000977
26 -5.057556 0.349637 2.233595 -0.772098 -0.236455 -0.589877 0.032227 0.436523
Texture_1.png
27 -3.023500 0.260848 0.833513 -0.238217 -0.129630 -0.962522 0.800781 0.327148
26 -4.182221 2.164471 1.286302 -0.597109 0.141612 -0.789561 0.928711 0.488281
26 -2.419403 2.144634 0.790846 -0.010909 0.055760 -0.998385 0.789063 0.362305
Texture_1.png
28 -4.158758 -0.964868 0.324326 -0.931990 -0.284604 0.224487 0.020508 0.454102
28 -2.690081 -1.401232 0.363998 0.498461 -0.650777 -0.572736 1.000000 0.325195
28 -2.658974 0.890849 1.964589 0.086559 0.184132 0.979083 0.666016 1.000000
Texture_1.png
28 -2.690081 -1.401232 0.363998 0.498461 -0.650777 -0.572736 1.000000 0.325195
28 -4.158758 -0.964868 0.324326 -0.931990 -0.284604 0.224487 0.020508 0.454102
28 -3.280536 1.720003 0.202271 -0.296930 0.628727 -0.718704 0.000000 0.124023
Texture_1.png
28 -2.690081 -1.401232 0.363998 0.498461 -0.650777 -0.572736 1.000000 0.325195
28 -3.280536 1.720003 0.202271 -0.296930 0.628727 -0.718704 0.000000 0.124023
28 -1.842082 1.199521 0.231411 0.878659 0.417421 -0.231772 0.942383 0.000000
Texture_1.png
28 -2.658974 0.890849 1.964589 0.086559 0.184132 0.979083 0.666016 1.000000
28 -1.842082 1.199521 0.231411 0.878659 0.417421 -0.231772 0.942383 0.000000
28 -3.280536 1.720003 0.202271 -0.296930 0.628727 -0.718704 0.000000 0.124023
Texture_1.png
28 -2.658974 0.890849 1.964589 0.086559 0.184132 0.979083 0.666016 1.000000
28 -3.280536 1.720003 0.202271 -0.296930 0.628727 -0.718704 0.000000 0.124023
28 -4.158758 -0.964868 0.324326 -0.931990 -0.284604 0.224487 0.020508 0.454102
Texture_1.png
28 -2.690081 -1.401232 0.363998 0.498461 -0.650777 -0.572736 1.000000 0.325195
28 -1.842082 1.199521 0.231411 0.878659 0.417421 -0.231772 0.942383 0.000000
28 -2.658974 0.890849 1.964589 0.086559 0.184132 0.979083 0.666016 1.000000
Texture_1.png
1 5.227658 -0.716057 5.928733 0.913999 -0.405695 -0.004193 0.607422 0.106445
31 5.261475 -0.439065 3.852688 0.910739 -0.392117 -0.129611 0.707031 0.255859
1 5.810067 2.113842 5.542247 0.998348 0.057447 -0.001180 0.078125 0.383789
Texture_1.png
31 1.231713 -1.702928 1.984275 -0.032660 -0.566334 -0.823528 0.863281 0.410156
1 1.066487 -1.796575 2.015890 0.121629 -0.693639 -0.709979 0.863281 0.410156
31 1.283669 0.793027 0.959868 0.023617 -0.233892 -0.971976 0.863281 0.410156
Texture_1.png
31 5.541729 1.635620 3.284144 0.941362 0.046268 -0.334211 0.580078 0.583008
1 5.810067 2.113842 5.542247 0.998348 0.057447 -0.001180 0.580078 0.583008
31 5.261475 -0.439065 3.852688 0.910739 -0.392117 -0.129611 0.707031 0.255859
Texture_1.png
31 5.261475 -0.439065 3.852688 0.910739 -0.392117 -0.129611 0.538086 0.000000
1 5.227658 -0.716057 5.928733 0.913999 -0.405695 -0.004193 0.772461 0.170898
1 3.794167 -2.134642 4.321618 0.538171 -0.829193 -0.151035 0.607422 0.106445
Texture_1.png
1 3.794167 -2.134642 4.321618 0.538171 -0.829193 -0.151035 1.000000 0.352539
31 2.935819 -2.307929 2.810588 0.130000 -0.916889 -0.377379 0.951172 0.359375
31 4.258593 -1.718702 2.905873 0.660084 -0.675556 -0.328502 0.854492 0.173828
Texture_1.png
31 1.283669 0.793027 0.959868 0.023617 -0.233892 -0.971976 0.582031 0.922852
1 2.412764 3.546848 0.876475 0.234066 0.312482 -0.920635 0.528320 0.956055
31 2.244524 2.217172 0.746402 -0.001167 0.047633 -0.998864 0.766602 0.737305
Texture_1.png
1 5.040483 4.050025 3.511622 0.808842 0.438758 -0.391492 0.078125 0.383789
1 5.810067 2.113842 5.542247 0.998348 0.057447 -0.001180 0.078125 0.383789
31 5.541729 1.635620 3.284144 0.941362 0.046268 -0.334211 0.388672 0.926758
Texture_1.png
31 4.014993 2.291962 1.208188 0.577939 0.158807 -0.800479 0.235352 1.000000
31 2.244524 2.217172 0.746402 -0.001167 0.047633 -0.998864 0.528320 0.956055
1 2.412764 3.546848 0.876475 0.234066 0.312482 -0.920635 0.235352 1.000000
Texture_1.png
31 2.935819 -2.307929 2.810588 0.130000 -0.916889 -0.377379 0.772461 0.170898
1 3.794167 -2.134642 4.321618 0.538171 -0.829193 -0.151035 0.867188 0.150391
1 1.066487 -1.796575 2.015890 0.121629 -0.693639 -0.709979 0.863281 0.410156
Texture_1.png
1 1.066487 -1.796575 2.015890 0.121629 -0.693639 -0.709979 0.863281 0.410156
31 1.231713 -1.702928 1.984275 -0.032660 -0.566334 -0.823528 0.867188 0.150391
31 2.935819 -2.307929 2.810588 0.130000 -0.916889 -0.377379 0.772461 0.170898
Texture_1.png
1 3.794167 -2.134642 4.321618 0.538171 -0.829193 -0.151035 0.607422 0.106445
31 4.258593 -1.718702 2.905873 0.660084 -0.675556 -0.328502 0.707031 0.255859
31 5.261475 -0.439065 3.852688 0.910739 -0.392117 -0.129611 0.538086 0.000000
Texture_1.png
31 4.014993 2.291962 1.208188 0.577939 0.158807 -0.800479 0.388672 0.926758
1 2.412764 3.546848 0.876475 0.234066 0.312482 -0.920635 0.235352 1.000000
1 5.040483 4.050025 3.511622 0.808842 0.438758 -0.391492 0.399414 0.997070
Texture_1.png
31 4.014993 2.291962 1.208188 0.577939 0.158807 -0.800479 0.388672 0.926758
1 5.040483 4.050025 3.511622 0.808842 0.438758 -0.391492 0.078125 0.383789
31 5.541729 1.635620 3.284144 0.941362 0.046268 -0.334211 0.388672 0.926758
Texture_1.png
31 1.283669 0.793027 0.959868 0.023617 -0.233892 -0.971976 0.000000 0.000000
1 1.066487 -1.796575 2.015890 0.121629 -0.693639 -0.709979 0.000000 0.000000
1 1.104334 0.829870 0.828056 0.216530 -0.206775 -0.954127 0.000000 0.000000
Texture_1.png
1 1.104334 0.829870 0.828056 0.216530 -0.206775 -0.954127 0.000000 0.000000
1 2.412764 3.546848 0.876475 0.234066 0.312482 -0.920635 0.000000 0.000000
31 1.283669 0.793027 0.959868 0.023617 -0.233892 -0.971976 0.000000 0.000000
Texture_1.png
31 4.964227 0.505504 2.138094 0.769805 -0.209611 -0.602879 0.580078 0.583008
31 5.261475 -0.439065 3.852688 0.910739 -0.392117 -0.129611 0.707031 0.255859
31 4.258593 -1.718702 2.905873 0.660084 -0.675556 -0.328502 0.951172 0.359375
Texture_1.png
31 5.541729 1.635620 3.284144 0.941362 0.046268 -0.334211 0.388672 0.926758
31 4.964227 0.505504 2.138094 0.769805 -0.209611 -0.602879 0.388672 0.926758
31 4.014993 2.291962 1.208188 0.577939 0.158807 -0.800479 0.388672 0.926758
Texture_1.png
31 5.261475 -0.439065 3.852688 0.910739 -0.392117 -0.129611 0.707031 0.255859
31 4.964227 0.505504 2.138094 0.769805 -0.209611 -0.602879 0.580078 0.583008
31 5.541729 1.635620 3.284144 0.941362 0.046268 -0.334211 0.580078 0.583008
Texture_1.png
32 3.011967 0.418205 0.825409 0.241434 -0.117997 -0.963217 0.800781 0.327148
31 1.283669 0.793027 0.959868 0.023617 -0.233892 -0.971976 0.426758 0.000977
31 2.244524 2.217172 0.746402 -0.001167 0.047633 -0.998864 0.789063 0.362305
Texture_1.png
31 4.258593 -1.718702 2.905873 0.660084 -0.675556 -0.328502 0.426758 0.000977
31 2.935819 -2.307929 2.810588 0.130000 -0.916889 -0.377379 0.216797 0.061523
32 2.990764 -1.283963 1.209824 0.217468 -0.534163 -0.816932 0.426758 0.000977
Texture_1.png
32 2.990764 -1.283963 1.209824 0.217468 -0.534163 -0.816932 0.216797 0.061523
31 2.935819 -2.307929 2.810588 0.130000 -0.916889 -0.377379 0.216797 0.061523
31 1.231713 -1.702928 1.984275 -0.032660 -0.566334 -0.823528 0.512695 0.354492
Texture_1.png
32 2.990764 -1.283963 1.209824 0.217468 -0.534163 -0.816932 0.216797 0.061523
31 1.231713 -1.702928 1.984275 -0.032660 -0.566334 -0.823528 0.512695 0.354492
31 1.283669 0.793027 0.959868 0.023617 -0.233892 -0.971976 0.532227 0.126953
Texture_1.png
32 2.990764 -1.283963 1.209824 0.217468 -0.534163 -0.816932 0.426758 0.000977
31 1.283669 0.793027 0.959868 0.023617 -0.233892 -0.971976 0.800781 0.327148
32 3.011967 0.418205 0.825409 0.241434 -0.117997 -0.963217 0.532227 0.126953
Texture_1.png
32 3.011967 0.418205 0.825409 0.241434 -0.117997 -0.963217 0.789063 0.362305
31 4.014993 2.291962 1.208188 0.577939 0.158807 -0.800479 0.905273 0.919922
31 4.964227 0.505504 2.138094 0.769805 -0.209611 -0.602879 0.563477 0.371094
Texture_1.png
32 2.990764 -1.283963 1.209824 0.217468 -0.534163 -0.816932 0.426758 0.000977
32 3.011967 0.418205 0.825409 0.241434 -0.117997 -0.963217 0.032227 0.436523
31 4.964227 0.505504 2.138094 0.769805 -0.209611 -0.602879 0.032227 0.436523
Texture_1.png
31 4.964227 0.505504 2.138094 0.769805 -0.209611 -0.602879 0.032227 0.436523
31 4.258593 -1.718702 2.905873 0.660084 -0.675556 -0.328502 0.426758 0.000977
32 2.990764 -1.283963 1.209824 0.217468 -0.534163 -0.816932 0.426758 0.000977
Texture_1.png
31 2.244524 2.217172 0.746402 -0.001167 0.047633 -0.998864 0.789063 0.362305
31 4.014993 2.291962 1.208188 0.577939 0.158807 -0.800479 0.928711 0.488281
32 3.011967 0.418205 0.825409 0.241434 -0.117997 -0.963217 0.800781 0.327148
Texture_1.png
33 2.606970 0.989100 1.966723 -0.114672 0.132746 0.984494 0.404297 1.000000
33 2.677517 -1.215656 0.248999 -0.625170 -0.774529 0.096265 0.968750 0.298828
33 4.148157 -0.784924 0.275251 0.789676 -0.249258 -0.560608 0.000000 0.176758
Texture_1.png
33 1.842361 1.392547 0.229166 -0.630536 0.320129 -0.707065 0.999023 0.116211
33 3.282759 1.906870 0.269488 0.417697 0.898446 -0.135366 0.065430 0.000977
33 4.148157 -0.784924 0.275251 0.789676 -0.249258 -0.560608 0.000000 0.176758
Texture_1.png
33 1.842361 1.392547 0.229166 -0.630536 0.320129 -0.707065 0.999023 0.116211
33 4.148157 -0.784924 0.275251 0.789676 -0.249258 -0.560608 0.000000 0.176758
33 2.677517 -1.215656 0.248999 -0.625170 -0.774529 0.096265 0.968750 0.298828
Texture_1.png
33 3.282759 1.906870 0.269488 0.417697 0.898446 -0.135366 0.065430 0.000977
33 1.842361 1.392547 0.229166 -0.630536 0.320129 -0.707065 0.999023 0.116211
33 2.606970 0.989100 1.966723 -0.114672 0.132746 0.984494 0.404297 1.000000
Texture_1.png
33 4.148157 -0.784924 0.275251 0.789676 -0.249258 -0.560608 0.000000 0.176758
33 3.282759 1.906870 0.269488 0.417697 0.898446 -0.135366 0.065430 0.000977
33 2.606970 0.989100 1.966723 -0.114672 0.132746 0.984494 0.404297 1.000000
Texture_1.png
33 2.606970 0.989100 1.966723 -0.114672 0.132746 0.984494 0.404297 1.000000
33 1.842361 1.392547 0.229166 -0.630536 0.320129 -0.707065 0.999023 0.116211
33 2.677517 -1.215656 0.248999 -0.625170 -0.774529 0.096265 0.968750 0.298828
Texture_2.png
2 -0.324358 7.840180 4.035194 -0.993074 0.113375 0.030828 0.246797 0.088443
2 -0.165660 8.789456 3.346000 -0.007959 0.842130 0.539215 0.244472 0.074789
2 -0.104236 3.934013 1.867152 0.017752 -0.710186 0.703790 0.139856 0.094416
Texture_2.png
2 -0.104236 3.934013 1.867152 0.017752 -0.710186 0.703790 0.139856 0.094416
2 0.035582 7.845778 4.031764 0.993753 0.110975 -0.011836 0.245635 0.088443
2 -0.130011 6.731633 3.728350 -0.645621 -0.588505 0.486657 0.139856 0.094416
Texture_2.png
2 -0.324358 7.840180 4.035194 -0.993074 0.113375 0.030828 0.246797 0.088443
2 0.035582 7.845778 4.031764 0.993753 0.110975 -0.011836 0.245635 0.088443
2 -0.165660 8.789456 3.346000 -0.007959 0.842130 0.539215 0.244472 0.074789
Texture_2.png
2 -0.130011 6.731633 3.728350 -0.645621 -0.588505 0.486657 0.139856 0.094416
2 -0.324358 7.840180 4.035194 -0.993074 0.113375 0.030828 0.143343 0.101244
2 -0.104236 3.934013 1.867152 0.017752 -0.710186 0.703790 0.203788 0.097830
Texture_2.png
2 -0.104236 3.934013 1.867152 0.017752 -0.710186 0.703790 0.139856 0.094416
2 -0.165660 8.789456 3.346000 -0.007959 0.842130 0.539215 0.244472 0.074789
2 0.035582 7.845778 4.031764 0.993753 0.110975 -0.011836 0.245635 0.088443
Texture_2.png
3 0.030171 9.920728 6.850445 0.953834 0.297471 -0.041368 0.115445 0.143913
3 0.038479 8.804870 5.901079 0.953818 -0.299361 0.024773 0.163104 0.163541
2 0.035582 7.845778 4.031764 0.993753 0.110975 -0.011836 0.232267 0.125992
Texture_2.png
3 -0.120208 6.417171 4.243880 0.657926 -0.566293 0.496433 0.258421 0.201089
2 -0.130011 6.731633 3.728350 -0.645621 -0.588505 0.486657 0.264233 0.166101
2 0.035582 7.845778 4.031764 0.993753 0.110975 -0.011836 0.232267 0.125992
Texture_2.png
3 -0.186585 11.356623 5.340009 -0.017588 0.960387 -0.278114 0.124163 -0.017376
2 0.035582 7.845778 4.031764 0.993753 0.110975 -0.011836 0.232267 0.125992
2 -0.324358 7.840180 4.035194 -0.993074 0.113375 0.030828 0.231686 0.099537
Texture_2.png
3 -0.329769 9.915129 6.853875 -0.971589 0.235718 -0.021268 0.115445 0.117458
3 -0.186585 11.356623 5.340009 -0.017588 0.960387 -0.278114 0.124163 -0.017376
2 -0.324358 7.840180 4.035194 -0.993074 0.113375 0.030828 0.231686 0.099537
Texture_2.png
2 -0.324358 7.840180 4.035194 -0.993074 0.113375 0.030828 0.231686 0.099537
3 -0.321462 8.799273 5.904509 -0.936136 -0.346995 0.056949 0.163104 0.137086
3 -0.329769 9.915129 6.853875 -0.971589 0.235718 -0.021268 0.115445 0.117458
Texture_2.png
2 0.035582 7.845778 4.031764 0.993753 0.110975 -0.011836 0.232267 0.125992
3 -0.186585 11.356623 5.340009 -0.017588 0.960387 -0.278114 0.124163 -0.017376
3 0.030171 9.920728 6.850445 0.953834 0.297471 -0.041368 0.115445 0.143913
Texture_2.png
3 -0.321462 8.799273 5.904509 -0.936136 -0.346995 0.056949 0.163104 0.137086
2 -0.324358 7.840180 4.035194 -0.993074 0.113375 0.030828 0.231686 0.099537
2 -0.130011 6.731633 3.728350 -0.645621 -0.588505 0.486657 0.264233 0.166101
Texture_2.png
3 -0.321462 8.799273 5.904509 -0.936136 -0.346995 0.056949 0.163104 0.137086
2 -0.130011 6.731633 3.728350 -0.645621 -0.588505 0.486657 0.264233 0.166101
3 -0.120208 6.417171 4.243880 0.657926 -0.566293 0.496433 0.258421 0.201089
Texture_2.png
2 0.035582 7.845778 4.031764 0.993753 0.110975 -0.011836 0.232267 0.125992
3 0.038479 8.804870 5.901079 0.953818 -0.299361 0.024773 0.163104 0.163541
3 -0.120208 6.417171 4.243880 0.657926 -0.566293 0.496433 0.258421 0.201089
Texture_2.png
3 -0.329769 9.915129 6.853875 -0.971589 0.235718 -0.021268 0.115445 0.117458
3 0.030171 9.920728 6.850445 0.953834 0.297471 -0.041368 0.115445 0.143913
3 -0.186585 11.356623 5.340009 -0.017588 0.960387 -0.278114 0.124163 -0.017376
Texture_2.png
3 -0.120208 6.417171 4.243880 0.657926 -0.566293 0.496433 0.258421 0.201089
3 0.038479 8.804870 5.901079 0.953818 -0.299361 0.024773 0.163104 0.163541
3 -0.321462 8.799273 5.904509 -0.936136 -0.346995 0.056949 0.163104 0.137086
Texture_2.png
4 -0.208219 9.454644 9.411578 -0.905601 -0.423316 0.026287 0.182284 0.446011
3 -0.321462 8.799273 5.904509 -0.936136 -0.346995 0.056949 0.138693 0.109777
4 0.165385 7.299548 7.315561 0.033226 -0.998995 0.030095 0.115445 0.230958
Texture_2.png
4 -0.208219 9.454644 9.411578 -0.905601 -0.423316 0.026287 0.182284 0.446011
3 -0.329769 9.915129 6.853875 -0.971589 0.235718 -0.021268 0.200301 0.215597
3 -0.321462 8.799273 5.904509 -0.936136 -0.346995 0.056949 0.138693 0.109777
Texture_2.png
4 -0.300205 10.554705 11.000169 -0.917873 0.303769 -0.255409 0.217156 0.532202
4 -0.175536 12.727962 8.737625 -0.015679 0.995252 -0.096056 0.285156 0.375180
3 -0.329769 9.915129 6.853875 -0.971589 0.235718 -0.021268 0.200301 0.215597
Texture_2.png
3 -0.329769 9.915129 6.853875 -0.971589 0.235718 -0.021268 0.200301 0.215597
4 -0.208219 9.454644 9.411578 -0.905601 -0.423316 0.026287 0.182284 0.446011
4 -0.300205 10.554705 11.000169 -0.917873 0.303769 -0.255409 0.217156 0.532202
Texture_2.png
3 0.038479 8.804870 5.901079 0.953818 -0.299361 0.024773 0.139275 0.109777
3 0.030171 9.920728 6.850445 0.953834 0.297471 -0.041368 0.200301 0.214744
4 0.061736 9.458847 9.409005 0.955800 -0.293905 0.008090 0.182865 0.445157
Texture_2.png
4 -0.175536 12.727962 8.737625 -0.015679 0.995252 -0.096056 0.285156 0.375180
3 0.030171 9.920728 6.850445 0.953834 0.297471 -0.041368 0.200301 0.214744
3 -0.329769 9.915129 6.853875 -0.971589 0.235718 -0.021268 0.198557 0.215597
Texture_2.png
4 -0.030250 10.558899 10.997595 0.955016 0.295388 -0.026263 0.217737 0.532202
4 0.061736 9.458847 9.409005 0.955800 -0.293905 0.008090 0.182865 0.445157
3 0.030171 9.920728 6.850445 0.953834 0.297471 -0.041368 0.200301 0.214744
Texture_2.png
4 0.061736 9.458847 9.409005 0.955800 -0.293905 0.008090 0.182865 0.445157
4 0.165385 7.299548 7.315561 0.033226 -0.998995 0.030095 0.115445 0.230958
3 0.038479 8.804870 5.901079 0.953818 -0.299361 0.024773 0.139275 0.109777
Texture_2.png
3 0.030171 9.920728 6.850445 0.953834 0.297471 -0.041368 0.200301 0.214744
4 -0.175536 12.727962 8.737625 -0.015679 0.995252 -0.096056 0.285156 0.375180
4 -0.030250 10.558899 10.997595 0.955016 0.295388 -0.026263 0.217737 0.532202
Texture_2.png
3 -0.321462 8.799273 5.904509 -0.936136 -0.346995 0.056949 0.138693 0.109777
3 0.038479 8.804870 5.901079 0.953818 -0.299361 0.024773 0.138112 0.108071
4 0.165385 7.299548 7.315561 0.033226 -0.998995 0.030095 0.115445 0.230958
Texture_2.png
4 -0.300205 10.554705 11.000169 -0.917873 0.303769 -0.255409 0.217156 0.532202
4 -0.030250 10.558899 10.997595 0.955016 0.295388 -0.026263 0.217737 0.532202
4 -0.175536 12.727962 8.737625 -0.015679 0.995252 -0.096056 0.285156 0.375180
Texture_2.png
4 0.165385 7.299548 7.315561 0.033226 -0.998995 0.030095 0.115445 0.230958
4 0.061736 9.458847 9.409005 0.955800 -0.293905 0.008090 0.182865 0.445157
4 -0.208219 9.454644 9.411578 -0.905601 -0.423316 0.026287 0.182284 0.446011
Texture_2.png
5 -0.137570 6.593915 12.156498 0.003437 -0.840329 -0.542067 0.081736 0.527935
4 0.061736 9.458847 9.409005 0.955800 -0.293905 0.008090 0.123582 0.348725
4 -0.030250 10.558899 10.997595 0.955016 0.295388 -0.026263 0.139856 0.455398
Texture_2.png
4 -0.300205 10.554705 11.000169 -0.917873 0.303769 -0.255409 0.139856 0.454544
4 -0.208219 9.454644 9.411578 -0.905601 -0.423316 0.026287 0.123582 0.347871
5 -0.137570 6.593915 12.156498 0.003437 -0.840329 -0.542067 0.081736 0.527935
Texture_2.png
4 -0.300205 10.554705 11.000169 -0.917873 0.303769 -0.255409 0.139856 0.454544
5 -0.367294 16.293331 13.325967 -0.780670 0.505915 -0.366885 0.249122 0.712266
5 -0.097339 16.297525 13.323393 0.608726 0.538756 -0.582404 0.239823 0.712266
Texture_2.png
4 -0.300205 10.554705 11.000169 -0.917873 0.303769 -0.255409 0.139856 0.454544
5 -0.097339 16.297525 13.323393 0.608726 0.538756 -0.582404 0.239823 0.712266
4 -0.030250 10.558899 10.997595 0.955016 0.295388 -0.026263 0.139856 0.455398
Texture_2.png
5 -0.137570 6.593915 12.156498 0.003437 -0.840329 -0.542067 0.081736 0.527935
4 -0.208219 9.454644 9.411578 -0.905601 -0.423316 0.026287 0.123582 0.347871
4 0.061736 9.458847 9.409005 0.955800 -0.293905 0.008090 0.123582 0.348725
Texture_2.png
5 -0.137570 6.593915 12.156498 0.003437 -0.840329 -0.542067 0.081736 0.527935
5 -0.367294 16.293331 13.325967 -0.780670 0.505915 -0.366885 0.249122 0.712266
4 -0.300205 10.554705 11.000169 -0.917873 0.303769 -0.255409 0.139856 0.454544
Texture_2.png
4 -0.030250 10.558899 10.997595 0.955016 0.295388 -0.026263 0.139856 0.455398
5 -0.097339 16.297525 13.323393 0.608726 0.538756 -0.582404 0.249122 0.712266
5 -0.137570 6.593915 12.156498 0.003437 -0.840329 -0.542067 0.081736 0.527935
Texture_2.png
5 -0.234781 16.809597 18.628281 -0.016652 0.998895 -0.043954 0.152642 0.975962
5 -0.367294 16.293331 13.325967 -0.780670 0.505915 -0.366885 0.249122 0.712266
5 -0.137570 6.593915 12.156498 0.003437 -0.840329 -0.542067 0.081736 0.527935
Texture_2.png
5 -0.097339 16.297525 13.323393 0.608726 0.538756 -0.582404 0.249122 0.712266
5 -0.234781 16.809597 18.628281 -0.016652 0.998895 -0.043954 0.152642 0.975962
5 -0.137570 6.593915 12.156498 0.003437 -0.840329 -0.542067 0.081736 0.527935
Texture_2.png
5 -0.234781 16.809597 18.628281 -0.016652 0.998895 -0.043954 0.152642 0.975962
5 -0.097339 16.297525 13.323393 0.608726 0.538756 -0.582404 0.249122 0.712266
5 -0.367294 16.293331 13.325967 -0.780670 0.505915 -0.366885 0.239823 0.712266
Texture_3.png
18 -3.019392 -4.482253 10.370690 -0.703497 -0.536576 -0.466024 0.203200 0.175518
18 -3.931744 -3.539161 11.709946 -0.895377 -0.431727 0.109139 0.523727 0.416316
7 -4.632930 -0.110468 11.225745 -0.993794 -0.058797 0.094428 1.203840 0.312426
Texture_3.png
18 4.064147 -1.105995 14.179582 0.971962 -0.214076 0.097269 1.031094 0.990526
18 3.978098 -3.656598 11.326528 0.894741 -0.446403 0.012775 0.524130 0.414302
7 4.725513 0.035083 11.136564 0.978317 -0.117981 0.170227 1.204646 0.311621
Texture_3.png
7 -4.632930 -0.110468 11.225745 -0.968441 -0.135881 0.208944 1.203840 0.312426
18 -3.931744 -3.539161 11.709946 -0.895377 -0.431727 0.109139 0.523727 0.416316
18 -3.665926 -0.991228 14.554278 -0.963666 -0.195168 0.182365 1.030691 0.990929
Texture_3.png
7 4.725513 0.035083 11.136564 0.997765 -0.040405 0.053225 1.204646 0.311621
18 3.978098 -3.656598 11.326528 0.894741 -0.446403 0.012775 0.524130 0.414302
18 2.912990 -4.570329 10.083132 0.655380 -0.536790 -0.531350 0.202798 0.176726
Texture_3.png
18 -2.440394 -5.537740 11.484199 -0.602449 -0.788874 0.121382 -0.035584 0.432825
18 -3.931744 -3.539161 11.709946 -0.895377 -0.431727 0.109139 0.523727 0.416316
18 -3.019392 -4.482253 10.370690 -0.703497 -0.536576 -0.466024 0.203200 0.175518
Texture_3.png
18 -2.875985 -3.919902 13.156939 -0.735434 -0.572387 0.362644 0.362658 0.733621
18 -3.931744 -3.539161 11.709946 -0.895377 -0.431727 0.109139 0.523727 0.416316
18 -2.440394 -5.537740 11.484199 -0.602449 -0.788874 0.121382 -0.035584 0.432825
Texture_3.png
18 -3.665926 -0.991228 14.554278 -0.963666 -0.195168 0.182365 1.030691 0.990929
18 -3.931744 -3.539161 11.709946 -0.895377 -0.431727 0.109139 0.523727 0.416316
18 -2.875985 -3.919902 13.156939 -0.735434 -0.572387 0.362644 0.362658 0.733621
Texture_3.png
18 3.056396 -4.007980 12.869379 0.749778 -0.594437 0.290650 0.361450 0.734024
18 3.978098 -3.656598 11.326528 0.894741 -0.446403 0.012775 0.524130 0.414302
18 4.064147 -1.105995 14.179582 0.971962 -0.214076 0.097269 1.031094 0.990526
Texture_3.png
18 3.056396 -4.007980 12.869379 0.749778 -0.594437 0.290650 0.361450 0.734024
18 2.291927 -4.913582 12.248442 0.538930 -0.719579 0.437905 0.093271 0.633356
18 2.413373 -5.609803 11.248920 0.587733 -0.806544 0.063689 -0.031557 0.436449
Texture_3.png
18 2.912990 -4.570329 10.083132 0.655380 -0.536790 -0.531350 0.202798 0.176726
18 3.978098 -3.656598 11.326528 0.894741 -0.446403 0.012775 0.524130 0.414302
18 2.413373 -5.609803 11.248920 0.587733 -0.806544 0.063689 -0.031557 0.436449
Texture_3.png
18 2.413373 -5.609803 11.248920 0.587733 -0.806544 0.063689 -0.031557 0.436449
18 3.978098 -3.656598 11.326528 0.894741 -0.446403 0.012775 0.524130 0.414302
18 3.056396 -4.007980 12.869379 0.749778 -0.594437 0.290650 0.361450 0.734024
Texture_3.png
18 -2.440394 -5.537740 11.484199 -0.602449 -0.788874 0.121382 -0.035584 0.432825
18 -2.202301 -4.846857 12.466287 -0.515134 -0.703929 0.489000 0.094882 0.632551
18 -2.875985 -3.919902 13.156939 -0.735434 -0.572387 0.362644 0.362658 0.733621
Texture_4.png
18 3.056396 -4.007980 12.869379 0.749778 -0.594437 0.290650 0.799038 0.429083
18 2.452941 -3.926723 15.267888 0.525242 -0.591390 0.611865 0.601934 0.975255
18 1.778357 -4.833660 14.642587 0.479055 -0.814731 0.326678 0.376745 0.791693
Texture_4.png
18 -1.457488 -4.785618 14.799438 -0.469141 -0.800653 0.372641 0.377246 0.792696
18 -2.041287 -3.859998 15.485734 -0.480898 -0.576453 0.660636 0.602937 0.977763
18 -2.875985 -3.919902 13.156939 -0.735434 -0.572387 0.362644 0.799540 0.428080
Texture_4.png
18 0.069716 -5.794286 13.151061 0.010789 -0.871869 0.489621 -0.021475 0.373412
18 -1.457488 -4.785618 14.799438 -0.469141 -0.800653 0.372641 0.377246 0.792696
18 -2.202301 -4.846857 12.466287 -0.515134 -0.703929 0.489000 0.568331 0.252542
Texture_4.png
18 -2.202301 -4.846857 12.466287 -0.515134 -0.703929 0.489000 0.568331 0.252542
18 -1.457488 -4.785618 14.799438 -0.469141 -0.800653 0.372641 0.377246 0.792696
18 -2.875985 -3.919902 13.156939 -0.735434 -0.572387 0.362644 0.799540 0.428080
Texture_4.png
18 2.291927 -4.913582 12.248442 0.538930 -0.719579 0.437905 0.567830 0.253044
18 1.778357 -4.833660 14.642587 0.479055 -0.814731 0.326678 0.376745 0.791693
18 0.069716 -5.794286 13.151061 0.010789 -0.871869 0.489621 -0.021475 0.373412
Texture_4.png
18 3.056396 -4.007980 12.869379 0.749778 -0.594437 0.290650 0.799038 0.429083
18 1.778357 -4.833660 14.642587 0.479055 -0.814731 0.326678 0.376745 0.791693
18 2.291927 -4.913582 12.248442 0.538930 -0.719579 0.437905 0.567830 0.253044
Texture_5.png
18 2.413373 -5.609803 11.248920 0.587733 -0.806544 0.063689 0.949234 0.431626
18 0.028485 -6.721591 12.584493 0.008999 -0.888948 0.457919 0.500000 0.730334
18 -0.068121 -6.088700 10.397664 -0.035629 -0.823896 -0.565620 0.500938 0.220140
Texture_5.png
18 -0.068121 -6.088700 10.397664 -0.035629 -0.823896 -0.565620 0.500938 0.220140
18 0.028485 -6.721591 12.584493 0.008999 -0.888948 0.457919 0.500000 0.730334
18 -2.440394 -5.537740 11.484199 -0.602449 -0.788874 0.121382 0.050766 0.431626
Texture_5.png
18 0.028485 -6.721591 12.584493 0.008999 -0.888948 0.457919 0.500000 0.730334
18 0.069716 -5.794286 13.151061 0.010789 -0.871869 0.489621 0.500000 0.819900
18 -2.202301 -4.846857 12.466287 -0.515134 -0.703929 0.489000 0.077026 0.628108
Texture_5.png
18 2.291927 -4.913582 12.248442 0.538930 -0.719579 0.437905 0.922974 0.628108
18 0.069716 -5.794286 13.151061 0.010789 -0.871869 0.489621 0.500000 0.819900
18 0.028485 -6.721591 12.584493 0.008999 -0.888948 0.457919 0.500000 0.730334
Texture_5.png
18 -2.202301 -4.846857 12.466287 -0.515134 -0.703929 0.489000 0.077026 0.628108
18 -2.440394 -5.537740 11.484199 -0.602449 -0.788874 0.121382 0.050766 0.431626
18 0.028485 -6.721591 12.584493 0.008999 -0.888948 0.457919 0.500000 0.730334
Texture_5.png
18 0.028485 -6.721591 12.584493 0.008999 -0.888948 0.457919 0.500000 0.730334
18 2.413373 -5.609803 11.248920 0.587733 -0.806544 0.063689 0.949234 0.431626
18 2.291927 -4.913582 12.248442 0.538930 -0.719579 0.437905 0.922974 0.628108
Texture_6.png
19 -6.281960 2.216347 19.247301 0.248500 -0.328735 0.911143 0.625000 0.757122
18 -1.781360 -1.907720 16.531893 -0.025454 -0.190142 0.981427 0.272461 0.030192
19 -4.041208 1.501907 17.927298 0.710123 0.193621 0.676932 0.302734 0.461912
Texture_6.png
18 -3.665926 -0.991228 14.554278 -0.963666 -0.195168 0.182365 -0.375000 0.260431
18 -2.820540 -2.418993 15.700150 -0.708652 -0.573597 0.410851 0.107422 0.121080
19 -5.512225 0.308465 17.917038 -0.776222 -0.612877 0.147856 0.443359 0.571085
Texture_6.png
19 -5.512225 0.308465 17.917038 -0.891536 -0.316716 -0.323812 0.443359 0.571085
19 -5.600266 1.580294 17.600815 -0.797590 0.156464 -0.582555 0.207031 0.637299
18 -3.665926 -0.991228 14.554278 -0.993915 -0.083425 0.071926 -0.375000 0.260431
Texture_6.png
19 -4.041208 1.501907 17.927298 0.562909 0.799210 0.210704 0.302734 0.461912
18 -1.781360 -1.907720 16.531893 0.147474 0.021715 0.988828 0.272461 0.030192
18 -2.420087 0.388446 15.665265 0.017365 0.762015 0.647327 -0.254883 0.186051
Texture_6.png
18 -2.420087 0.388446 15.665265 -0.174139 0.968983 -0.175350 -0.254883 0.186051
18 -3.665926 -0.991228 14.554278 -0.878028 0.321681 -0.354384 -0.375000 0.260431
19 -5.600266 1.580294 17.600815 -0.490496 0.633217 -0.598707 0.207031 0.637299
Texture_6.png
18 -1.781360 -1.907720 16.531893 -0.025454 -0.190142 0.981427 0.272461 0.030192
19 -6.281960 2.216347 19.247301 0.248500 -0.328735 0.911143 0.625000 0.757122
19 -5.512225 0.308465 17.917038 -0.396681 -0.760931 0.513447 0.443359 0.571085
Texture_6.png
19 -5.600266 1.580294 17.600815 0.026641 0.880944 -0.472470 0.207031 0.637299
19 -4.041208 1.501907 17.927298 0.425914 0.897969 -0.110673 0.302734 0.461912
18 -2.420087 0.388446 15.665265 0.045201 0.971730 0.231728 -0.254883 0.186051
Texture_6.png
19 -5.512225 0.308465 17.917038 -0.647273 -0.690726 0.322392 0.443359 0.571085
18 -2.820540 -2.418993 15.700150 -0.708652 -0.573597 0.410851 0.107422 0.121080
18 -1.781360 -1.907720 16.531893 -0.142151 -0.250122 0.957722 0.272461 0.030192
Texture_6.png
19 -6.281960 2.216347 19.247301 -0.932696 -0.146507 -0.329566 0.625000 0.757122
19 -5.600266 1.580294 17.600815 -0.797590 0.156464 -0.582555 0.207031 0.637299
19 -5.512225 0.308465 17.917038 -0.857364 -0.507722 -0.084526 0.443359 0.571085
Texture_6.png
19 -4.041208 1.501907 17.927298 0.425914 0.897969 -0.110673 0.302734 0.461912
19 -5.600266 1.580294 17.600815 0.026641 0.880944 -0.472470 0.207031 0.637299
19 -6.281960 2.216347 19.247301 0.113671 0.941684 -0.316718 0.625000 0.757122
Texture_6.png
20 4.837508 1.370086 17.496918 -0.635290 0.213597 0.742147 0.302734 0.461912
18 2.353330 -1.969107 16.331472 0.114594 -0.192221 0.974638 0.272461 0.030192
20 7.215572 2.015951 18.593037 -0.168858 -0.322538 0.931373 0.625000 0.757122
Texture_6.png
20 6.264645 0.133616 17.346178 0.768387 -0.635810 0.072984 0.443359 0.571085
18 3.291610 -2.509740 15.403869 0.727760 -0.594923 0.341223 0.107422 0.121080
18 4.064147 -1.105995 14.179582 0.971962 -0.214076 0.097269 -0.375000 0.260431
Texture_6.png
18 4.064147 -1.105995 14.179582 0.994609 -0.102397 -0.016356 -0.375000 0.260431
20 6.359324 1.402732 17.021088 0.741804 0.133606 -0.657173 0.207031 0.637299
20 6.264645 0.133616 17.346178 0.846273 -0.342518 -0.408048 0.443359 0.571085
Texture_6.png
18 2.972987 0.308376 15.403841 0.061977 0.754266 0.653637 -0.254883 0.186051
18 2.353330 -1.969107 16.331472 -0.050457 0.024655 0.998422 0.272461 0.030192
20 4.837508 1.370086 17.496918 -0.515978 0.815228 0.263002 0.302734 0.461912
Texture_6.png
20 6.359324 1.402732 17.021088 0.448842 0.619271 -0.644239 0.207031 0.637299
18 4.064147 -1.105995 14.179582 0.847320 0.327800 -0.417847 -0.375000 0.260431
18 2.972987 0.308376 15.403841 0.178242 0.967468 -0.179544 -0.254883 0.186051
Texture_6.png
20 6.264645 0.133616 17.346178 0.421760 -0.773083 0.473774 0.443359 0.571085
20 7.215572 2.015951 18.593037 -0.168858 -0.322538 0.931373 0.625000 0.757122
18 2.353330 -1.969107 16.331472 0.114594 -0.192221 0.974638 0.272461 0.030192
Texture_6.png
18 2.972987 0.308376 15.403841 -0.000218 0.969398 0.245496 -0.254883 0.186051
20 4.837508 1.370086 17.496918 -0.407837 0.910348 -0.070257 0.302734 0.461912
20 6.359324 1.402732 17.021088 -0.046100 0.882024 -0.468943 0.207031 0.637299
Texture_6.png
18 2.353330 -1.969107 16.331472 0.226624 -0.255597 0.939846 0.272461 0.030192
18 3.291610 -2.509740 15.403869 0.727760 -0.594923 0.341223 0.107422 0.121080
20 6.264645 0.133616 17.346178 0.654671 -0.710055 0.259282 0.443359 0.571085
Texture_6.png
20 6.264645 0.133616 17.346178 0.829757 -0.532771 -0.166306 0.443359 0.571085
20 6.359324 1.402732 17.021088 0.741804 0.133606 -0.657173 0.207031 0.637299
20 7.215572 2.015951 18.593037 0.891708 -0.173595 -0.417998 0.625000 0.757122
Texture_6.png
20 7.215572 2.015951 18.593037 -0.115824 0.945092 -0.305591 0.625000 0.757122
20 6.359324 1.402732 17.021088 -0.046100 0.882024 -0.468943 0.207031 0.637299
20 4.837508 1.370086 17.496918 -0.407837 0.910348 -0.070257 0.302734 0.461912
end
